<?xml version="1.0" encoding="UTF-8" standalone="no"?>
<svg
   xmlns:dc="http://purl.org/dc/elements/1.1/"
   xmlns:cc="http://creativecommons.org/ns#"
   xmlns:rdf="http://www.w3.org/1999/02/22-rdf-syntax-ns#"
   xmlns:svg="http://www.w3.org/2000/svg"
   xmlns="http://www.w3.org/2000/svg"
   xmlns:sodipodi="http://sodipodi.sourceforge.net/DTD/sodipodi-0.dtd"
   xmlns:inkscape="http://www.inkscape.org/namespaces/inkscape"
   inkscape:version="1.0beta2 (2b71d25, 2019-12-03)"
   sodipodi:docname="icon-online-training-offer.svg"
   id="svg845"
   version="1.1"
   height="76.921501"
   width="106.5345">
  <metadata
     id="metadata851">
    <rdf:RDF>
      <cc:Work
         rdf:about="">
        <dc:format>image/svg+xml</dc:format>
        <dc:type
           rdf:resource="http://purl.org/dc/dcmitype/StillImage" />
        <dc:title />
      </cc:Work>
    </rdf:RDF>
  </metadata>
  <defs
     id="defs849" />
  <sodipodi:namedview
     inkscape:current-layer="g1353"
     inkscape:window-maximized="0"
     inkscape:window-y="23"
     inkscape:window-x="0"
     inkscape:cy="39.978888"
     inkscape:cx="84.052602"
     inkscape:zoom="12.240964"
     fit-margin-bottom="0"
     fit-margin-right="0"
     fit-margin-left="0"
     fit-margin-top="0"
     showgrid="false"
     id="namedview847"
     inkscape:window-height="1266"
     inkscape:window-width="2206"
     inkscape:pageshadow="2"
     inkscape:pageopacity="0"
     guidetolerance="10"
     gridtolerance="10"
     objecttolerance="10"
     borderopacity="1"
     inkscape:document-rotation="0"
     bordercolor="#666666"
     pagecolor="#ffffff" />
  <g
     transform="translate(-0.105,-0.585)"
     id="g1353"
     fill-rule="evenodd"
     fill="none">
    <path
       inkscape:connector-curvature="0"
       style="fill:#8cc63f;fill-opacity:1"
       id="path1335"
       fill="#62E0D9"
       d="M 2.476,53.466 H 73.593 V 45.483 H 2.476 Z m 49.237,11.977 h 3.943 v 3.529 H 20.413 v -3.529 h 3.942 c 0.656,0 1.185,-0.529 1.185,-1.183 v -8.427 h 24.988 v 8.427 c 0,0.654 0.53,1.183 1.185,1.183 z M 2.476,43.116 H 73.593 V 2.95 H 2.476 V 43.115 Z M 1.29,0.585 c -0.655,0 -1.185,0.529 -1.185,1.183 V 54.65 c 0,0.655 0.53,1.184 1.185,1.184 h 21.88 v 7.243 h -3.943 c -0.655,0 -1.185,0.532 -1.185,1.184 v 5.895 c 0,0.652 0.53,1.184 1.185,1.184 h 37.615 c 0.654,0 1.185,-0.532 1.185,-1.184 V 64.26 c 0,-0.652 -0.531,-1.184 -1.185,-1.184 h -3.944 v -7.243 h 21.88 c 0.655,0 1.186,-0.53 1.186,-1.184 V 1.77 c 0,-0.655 -0.531,-1.184 -1.185,-1.184 H 1.29 Z" />
    <path
       inkscape:connector-curvature="0"
       style="fill:#8cc63f;fill-opacity:1"
       id="path1337"
       fill="#62E0D9"
       d="m 38.412,47.92 c -0.654,0 -1.185,0.53 -1.185,1.184 a 1.185,1.185 0 0 0 2.37,0 c 0,-0.653 -0.531,-1.184 -1.185,-1.184" />
    <g
       style="stroke:#8cc63f;stroke-opacity:1"
       id="g1345"
       stroke="#62E0D9"
       transform="translate(79.377,23.07)">
      <rect
         style="fill:#ffffff;fill-opacity:0;stroke:#8cc63f;stroke-opacity:1"
         id="rect1339"
         rx="2.4619999"
         height="52.794998"
         width="25.621"
         y="0.82099998"
         x="0.82099998"
         fill="#181F2B"
         stroke-width="1.641" />
      <path
         inkscape:connector-curvature="0"
         style="stroke:#8cc63f;stroke-opacity:1"
         id="path1341"
         d="m 0.729,6.646 h 25.803 v 1 H 0.729 Z m 0,37.869 h 25.803 v 1 H 0.729 Z"
         fill="#FFF"
         stroke-width="1.458" />
      <ellipse
         style="stroke:#8cc63f;stroke-opacity:1"
         id="ellipse1343"
         ry="1.183"
         rx="1.1849999"
         cy="48.519001"
         cx="13.038"
         stroke-width="1.01" />
    </g>
    <g
       transform="matrix(1.3333333,0,0,-1.3333333,-5.812203,51.295338)"
       id="g116">
      <g
         transform="matrix(0.33095114,0,0,0.33095114,95.420754,2.6467388)"
         id="g116-7-6">
        <path
           sodipodi:nodetypes="cccccccccccccccccccc"
           inkscape:connector-curvature="0"
           id="path118-0-7"
           style="fill:#8cc63f;fill-opacity:1;fill-rule:nonzero;stroke:none;stroke-width:0.576347"
           d="m -48.265389,3.83169 -0.503728,-1.8091519 c -2.768768,3.4909314 -6.943246,5.1980701 -11.441055,6.4302991 -4.497809,1.2316527 -9.00484,1.9013678 -13.352228,0.3602166 l 0.28126,1.3711292 c 1.00227,3.192959 5.307003,6.940365 8.724161,6.004378 l 12.416812,-3.400445 c 3.418311,-0.935986 4.876468,-5.7634656 3.874778,-8.956426 m 2.477138,-7.0366158 c 2.105394,1.3411586 3.639628,3.30361894 4.358909,5.5969021 l 0.975178,3.1070845 c 1.712902,5.4603082 -1.787827,9.1062762 -7.395103,11.8652472 l -16.932487,4.637286 c -5.844726,1.600514 -12.056596,-0.608622 -13.770076,-6.06893 l -0.97518,-3.107085 c -0.71928,-2.293283 -0.56251,-4.7185497 0.43399,-6.9098195 -3.51513,-2.5341961 -6.0476,-5.94962616 -7.35706,-9.9287232 -3.26731,-9.9258413 2.26562,-20.7283053 12.6168,-24.5143263 11.854877,-4.33528 24.917196,1.827594 28.42023,12.992005 1.283524,4.090908 1.152117,8.33743 -0.375201,12.3303592" />
      </g>
    </g>
  </g>
  <text
     id="text851"
     y="21.308704"
     x="37.886822"
     style="font-style:normal;font-variant:normal;font-weight:normal;font-stretch:normal;font-size:24px;line-height:0.85;font-family:Silom;-inkscape-font-specification:Silom;text-align:center;letter-spacing:-1px;text-anchor:middle;fill:#8cc63f;fill-opacity:1;stroke:none"
     xml:space="preserve"><tspan
       y="21.308704"
       x="37.886822"
       id="tspan849"
       sodipodi:role="line">HALF</tspan><tspan
       id="tspan853"
       y="41.708706"
       x="37.386822"
       sodipodi:role="line">PRICE</tspan></text>
</svg>
