<?xml version="1.0" encoding="UTF-8" standalone="no"?>
<svg
   xmlns:dc="http://purl.org/dc/elements/1.1/"
   xmlns:cc="http://creativecommons.org/ns#"
   xmlns:rdf="http://www.w3.org/1999/02/22-rdf-syntax-ns#"
   xmlns:svg="http://www.w3.org/2000/svg"
   xmlns="http://www.w3.org/2000/svg"
   xmlns:sodipodi="http://sodipodi.sourceforge.net/DTD/sodipodi-0.dtd"
   xmlns:inkscape="http://www.inkscape.org/namespaces/inkscape"
   sodipodi:docname="icon-instagram.svg"
   id="svg853"
   version="1.1"
   width="448"
   height="448"
   viewBox="0 0 448 448"
   inkscape:version="1.0beta2 (2b71d25, 2019-12-03)">
  <metadata
     id="metadata859">
    <rdf:RDF>
      <cc:Work
         rdf:about="">
        <dc:format>image/svg+xml</dc:format>
        <dc:type
           rdf:resource="http://purl.org/dc/dcmitype/StillImage" />
      </cc:Work>
    </rdf:RDF>
  </metadata>
  <defs
     id="defs857" />
  <sodipodi:namedview
     inkscape:current-layer="svg853"
     inkscape:window-maximized="0"
     inkscape:window-y="151"
     inkscape:window-x="400"
     inkscape:cy="246.82803"
     inkscape:cx="110.57325"
     inkscape:zoom="0.70089286"
     showgrid="false"
     id="namedview855"
     inkscape:window-height="958"
     inkscape:window-width="1508"
     inkscape:pageshadow="2"
     inkscape:pageopacity="0"
     guidetolerance="10"
     gridtolerance="10"
     objecttolerance="10"
     borderopacity="1"
     inkscape:document-rotation="0"
     bordercolor="#666666"
     pagecolor="#ffffff" />
  <path
     d="m 317.33,37.33 a 93.62,93.62 0 0 1 93.34,93.34 v 186.66 a 93.62,93.62 0 0 1 -93.34,93.34 H 130.67 A 93.62,93.62 0 0 1 37.33,317.33 V 130.67 A 93.62,93.62 0 0 1 130.67,37.33 H 317.33 M 317.33,0 H 130.67 C 58.8,0 0,58.8 0,130.67 V 317.33 C 0,389.2 58.8,448 130.67,448 H 317.33 C 389.2,448 448,389.2 448,317.33 V 130.67 C 448,58.8 389.2,0 317.33,0 Z"
     id="path12"
     style="fill:#8cc63f;fill-opacity:1"
     inkscape:connector-curvature="0" />
  <path
     d="m 345.33,130.67 a 28,28 0 1 1 28,-28 27.94,27.94 0 0 1 -28,28 z"
     id="path14"
     style="fill:#8cc63f;fill-opacity:1"
     inkscape:connector-curvature="0" />
  <path
     d="M 224,149.33 A 74.67,74.67 0 1 1 149.33,224 74.75,74.75 0 0 1 224,149.33 M 224,112 A 112,112 0 1 0 336,224 112,112 0 0 0 224,112 Z"
     id="path16"
     style="fill:#8cc63f;fill-opacity:1"
     inkscape:connector-curvature="0" />
</svg>
