<?xml version="1.0" encoding="UTF-8" standalone="no"?>
<svg
   xmlns:dc="http://purl.org/dc/elements/1.1/"
   xmlns:cc="http://creativecommons.org/ns#"
   xmlns:rdf="http://www.w3.org/1999/02/22-rdf-syntax-ns#"
   xmlns:svg="http://www.w3.org/2000/svg"
   xmlns="http://www.w3.org/2000/svg"
   xmlns:sodipodi="http://sodipodi.sourceforge.net/DTD/sodipodi-0.dtd"
   xmlns:inkscape="http://www.inkscape.org/namespaces/inkscape"
   inkscape:version="1.0beta2 (2b71d25, 2019-12-03)"
   sodipodi:docname="_icon-access-anywhere.svg"
   id="svg1355"
   version="1.1"
   height="78"
   width="83">
  <metadata
     id="metadata1361">
    <rdf:RDF>
      <cc:Work
         rdf:about="">
        <dc:format>image/svg+xml</dc:format>
        <dc:type
           rdf:resource="http://purl.org/dc/dcmitype/StillImage" />
      </cc:Work>
    </rdf:RDF>
  </metadata>
  <defs
     id="defs1359" />
  <sodipodi:namedview
     inkscape:current-layer="g116"
     inkscape:window-maximized="0"
     inkscape:window-y="23"
     inkscape:window-x="0"
     inkscape:cy="39"
     inkscape:cx="-13.273885"
     inkscape:zoom="4.025641"
     showgrid="false"
     id="namedview1357"
     inkscape:window-height="939"
     inkscape:window-width="1687"
     inkscape:pageshadow="2"
     inkscape:pageopacity="0"
     guidetolerance="10"
     gridtolerance="10"
     objecttolerance="10"
     borderopacity="1"
     inkscape:document-rotation="0"
     bordercolor="#666666"
     pagecolor="#ffffff" />
  <g
     id="g1353"
     fill-rule="evenodd"
     fill="none">
    <path
       style="fill:#8cc63f;fill-opacity:1"
       id="path1335"
       fill="#62E0D9"
       d="M2.476 53.466h71.117v-7.983H2.476v7.983zm49.237 11.977h3.943v3.529H20.413v-3.529h3.942c.656 0 1.185-.529 1.185-1.183v-8.427h24.988v8.427c0 .654.53 1.183 1.185 1.183zM2.476 43.116h71.117V2.95H2.476v40.165zM1.29.585C.635.585.105 1.114.105 1.768V54.65c0 .655.53 1.184 1.185 1.184h21.88v7.243h-3.943c-.655 0-1.185.532-1.185 1.184v5.895c0 .652.53 1.184 1.185 1.184h37.615c.654 0 1.185-.532 1.185-1.184V64.26c0-.652-.531-1.184-1.185-1.184h-3.944v-7.243h21.88c.655 0 1.186-.53 1.186-1.184V1.77c0-.655-.531-1.184-1.185-1.184H1.29z" />
    <path
       style="fill:#8cc63f;fill-opacity:1"
       id="path1337"
       fill="#62E0D9"
       d="M36.412 47.92c-.654 0-1.185.53-1.185 1.184a1.185 1.185 0 0 0 2.37 0c0-.653-.531-1.184-1.185-1.184" />
    <g
       style="stroke:#8cc63f;stroke-opacity:1"
       id="g1345"
       stroke="#62E0D9"
       transform="translate(55.377 23.07)">
      <rect
         style="fill:#ffffff;fill-opacity:1;stroke:#8cc63f;stroke-opacity:1"
         id="rect1339"
         rx="2.462"
         height="52.795"
         width="25.621"
         y=".821"
         x=".821"
         fill="#181F2B"
         stroke-width="1.641" />
      <path
         style="stroke:#8cc63f;stroke-opacity:1"
         id="path1341"
         d="M.729 6.646h25.803v1H.729zM.729 44.515h25.803v1H.729z"
         fill="#FFF"
         stroke-width="1.458" />
      <ellipse
         style="stroke:#8cc63f;stroke-opacity:1"
         id="ellipse1343"
         ry="1.183"
         rx="1.185"
         cy="48.519"
         cx="13.038"
         stroke-width="1.01" />
    </g>
    <g
       transform="matrix(1.3333333,0,0,-1.3333333,-29.812203,51.295338)"
       id="g116">
      <path
         sodipodi:nodetypes="cccccccccccccccccccc"
         inkscape:connector-curvature="0"
         id="path118"
         style="fill:#8cc63f;fill-opacity:1;fill-rule:nonzero;stroke:none;stroke-width:0.216904"
         d="m 56.017344,23.566292 -0.192482,-0.670577 c -1.057991,1.293943 -2.653127,1.926708 -4.371812,2.383444 -1.718685,0.456522 -3.440894,0.704757 -5.102099,0.133517 l 0.107473,0.50822 c 0.382982,1.183498 2.02789,2.572505 3.333642,2.225574 l 4.744663,-1.260404 c 1.306192,-0.346931 1.863377,-2.136276 1.480615,-3.319774 m 0.946554,-2.60818 c 0.804505,0.497112 1.390761,1.224514 1.665609,2.074539 l 0.372632,1.151666 c 0.654527,2.023909 -0.683158,3.375317 -2.825788,4.397953 l -6.470176,1.718848 c -2.233366,0.593244 -4.607019,-0.225591 -5.261767,-2.2495 l -0.372631,-1.151666 c -0.274848,-0.850024 -0.214946,-1.74897 0.165834,-2.561182 -1.343191,-0.939321 -2.310887,-2.205278 -2.811253,-3.680163 -1.248491,-3.679096 0.86573,-7.68312 4.821084,-9.08644 4.529938,-1.606907 9.521261,0.677414 10.859826,4.815595 0.490456,1.516329 0.440243,3.090338 -0.14337,4.57035" />
      <path
         d="M 77.553907,2.8592539 77.428784,2.4650887 c -0.687747,0.7605798 -1.724663,1.132519 -2.841893,1.4009884 -1.117229,0.2683437 -2.23675,0.4142562 -3.316615,0.078481 l 0.06986,0.2987318 c 0.248957,0.6956601 1.318228,1.512118 2.167031,1.3081923 l 3.084264,-0.7408654 c 0.849089,-0.203926 1.211286,-1.255703 0.962473,-1.9513632 M 78.16921,1.3261654 c 0.522967,0.2922024 0.904063,0.7197699 1.082728,1.219414 l 0.242231,0.6769496 c 0.425476,1.1896538 -0.444086,1.9840114 -1.8369,2.5851169 L 73.451337,6.8179847 C 71.999539,7.1666934 70.456548,6.6853823 70.03093,5.4957282 L 69.788702,4.8187793 c -0.178665,-0.4996441 -0.139726,-1.0280446 0.1078,-1.5054628 -0.87314,-0.5521329 -1.50219,-1.2962619 -1.827452,-2.1631999 -0.811581,-2.1625727 0.562766,-4.5161374 3.133941,-5.3410095 2.944682,-0.9445399 6.189286,0.398184 7.05942,2.8306073 0.31882,0.89129826 0.286179,1.81650016 -0.0932,2.6864513"
         style="fill:#8cc63f;fill-opacity:1;fill-rule:nonzero;stroke:none;stroke-width:0.134077"
         id="path118-1"
         inkscape:connector-curvature="0"
         sodipodi:nodetypes="cccccccccccccccccccc" />
    </g>
  </g>
</svg>
