<?xml version="1.0" encoding="UTF-8" standalone="no"?>
<svg
   xmlns:dc="http://purl.org/dc/elements/1.1/"
   xmlns:cc="http://creativecommons.org/ns#"
   xmlns:rdf="http://www.w3.org/1999/02/22-rdf-syntax-ns#"
   xmlns:svg="http://www.w3.org/2000/svg"
   xmlns="http://www.w3.org/2000/svg"
   xmlns:sodipodi="http://sodipodi.sourceforge.net/DTD/sodipodi-0.dtd"
   xmlns:inkscape="http://www.inkscape.org/namespaces/inkscape"
   width="600"
   height="600"
   viewBox="0 0 158.74999 158.74999"
   version="1.1"
   id="svg1039"
   inkscape:version="1.0beta2 (2b71d25, 2019-12-03)"
   sodipodi:docname="icon-palmtree.svg">
  <defs
     id="defs1033">
    <clipPath
       id="clipPath46"
       clipPathUnits="userSpaceOnUse">
      <path
         inkscape:connector-curvature="0"
         id="path44"
         d="M 0,1000 H 1000 V 0 H 0 Z" />
    </clipPath>
  </defs>
  <sodipodi:namedview
     units="px"
     id="base"
     pagecolor="#ffffff"
     bordercolor="#666666"
     borderopacity="1.0"
     inkscape:pageopacity="0.0"
     inkscape:pageshadow="2"
     inkscape:zoom="0.54"
     inkscape:cx="302.26005"
     inkscape:cy="802.14687"
     inkscape:document-units="mm"
     inkscape:current-layer="layer1"
     inkscape:document-rotation="0"
     showgrid="false"
     inkscape:window-width="1600"
     inkscape:window-height="1209"
     inkscape:window-x="313"
     inkscape:window-y="115"
     inkscape:window-maximized="0"
     fit-margin-top="0"
     fit-margin-left="0"
     fit-margin-right="0"
     fit-margin-bottom="0" />
  <metadata
     id="metadata1036">
    <rdf:RDF>
      <cc:Work
         rdf:about="">
        <dc:format>image/svg+xml</dc:format>
        <dc:type
           rdf:resource="http://purl.org/dc/dcmitype/StillImage" />
        <dc:title></dc:title>
      </cc:Work>
    </rdf:RDF>
  </metadata>
  <g
     inkscape:label="Layer 1"
     inkscape:groupmode="layer"
     id="layer1"
     transform="translate(-0.91393308,-80.318878)">
    <g
       transform="matrix(0.02980362,0,0,-0.02980362,-270.67776,556.30924)"
       id="g3947">
      <path
         inkscape:connector-curvature="0"
         id="path3949"
         style="fill:#211d1d;fill-opacity:1;fill-rule:nonzero;stroke:none;stroke-width:0.861001"
         d="m 14424.351,13861.2 c -30.172,24.8 -59.751,52 -95.927,59.4 -5.56,4.7 -10.749,10.5 -16.68,13.7 -48.705,26.3 -97.41,52 -146.189,77.7 -7.635,4.1 -15.642,8.8 -23.87,4.4 -17.421,-9.3 -32.693,-0.1 -46.481,11.7 -14.308,12.3 -29.727,18.4 -45.814,22.6 -40.031,10.5 -80.359,19.3 -120.168,31 -16.013,4.7 -32.248,7.6 -48.186,11.9 -32.322,8.6 -64.94,10.2 -97.336,15.3 -59.973,9.5 -119.649,24 -179.474,35.1 -21.054,3.9 -42.626,4.9 -63.754,-2 -10.156,14.9 -24.167,10.7 -36.769,13.8 -15.79,3.8 -33.36,-3.3 -47.223,13 10.75,35.9 10.379,68.5 -15.419,93.4 -1.26,1.3 -2.817,2.4 -3.855,4 -4.893,7.5 -5.486,14.8 -0.445,23.1 4.003,6.6 8.229,13.7 10.527,21.5 7.636,25.9 9.415,56 33.508,68.1 3.706,1.9 5.189,15.2 6.153,23.6 1.927,17.7 -0.223,34.9 -5.264,51.7 -2.668,9.2 0.371,16.9 6.746,21.8 4.3,3.1 11.862,5.4 12.381,9.4 4.373,36 7.487,72.3 10.971,108.6 -20.609,24.7 -26.687,66.5 -53.82,83.7 -0.593,8.9 -1.112,17.7 -1.705,26.6 11.861,15.4 11.268,18 -6.079,29 -0.222,3.9 -0.815,7.7 -1.705,11.4 -0.148,8.6 -0.296,17.3 -0.445,25.9 28.022,-2.6 38.549,22.5 38.475,52.7 -0.07,31.9 12.751,41.6 31.061,48.3 6.228,2.3 12.306,4.6 18.608,6.9 17.05,2.9 30.542,-13.1 48.334,-18.4 0.741,14.9 0.667,28.1 2.224,40.9 1.038,8.3 3.113,21.8 6.746,23.2 22.684,8.6 20.757,35.8 26.984,57.5 5.115,18.1 -0.741,29.1 -8.896,41.1 -12.083,17.7 -23.574,9.3 -35.435,0.7 -7.117,7.3 -11.194,17.7 -7.784,28.3 10.453,31.4 9.489,63.1 4.522,95.5 2.224,30.7 -6.153,60.2 -4.596,91.6 1.483,31.1 -8.599,60.6 -27.503,81.9 -0.07,3.9 -0.667,7.6 -1.705,11.3 0.963,4.2 0.37,8.1 -1.779,11.5 0.815,21 -2.447,40.6 -15.865,53.1 -21.646,20.2 -44.331,40 -71.76,39.2 -36.769,-1.2 -71.76,4.8 -104.823,28.4 -18.903,13.5 -38.178,11.3 -55.451,-7.4 -6.375,-6.9 -12.899,-13.5 -19.274,-20.1 -6.449,-1.5 -12.899,-2.9 -19.348,-4.3 -14.086,16.9 -32.248,15.1 -49.15,19.1 -35.954,18 -72.353,34.1 -110.68,39.2 -12.899,1.7 -24.76,5.5 -36.399,14.8 -18.014,14.4 -37.51,25.2 -59.454,15.9 -2.594,10.8 -7.932,18 -15.938,20.6 -14.901,5 -29.949,9.1 -44.998,13.6 -10.601,15.6 -22.981,26.4 -39.513,25.8 -9.933,5.1 -19.867,10.3 -29.727,15.5 -9.859,14.4 -24.538,7.4 -36.547,16.1 -37.733,27.4 -78.877,41.8 -121.577,47.6 -6.672,2.2 -12.751,-0.1 -18.533,-5 -18.755,5.9 -39.29,7.3 -55.97,18.8 -24.093,16.6 -49.149,16.7 -74.428,20.1 -5.486,5.9 -11.417,7.3 -18.015,3.7 -9.044,1.7 -16.383,-0.9 -19.2,-14.5 -6.968,1.7 -13.863,3.4 -20.831,5.1 -8.822,18 -21.424,24.5 -37.289,25.7 -56.711,4.1 -113.496,-10 -170.133,2.1 -3.188,0.7 -6.524,0.2 -9.785,-0.2 -42.256,-5.2 -84.363,-3.1 -126.618,-0.8 -63.532,3.5 -126.766,-5.3 -189.927,-13.3 -14.604,2.2 -28.17,-0.5 -39.142,-15.5 -14.233,3.7 -26.465,17.8 -42.181,14.8 -25.65,-4.9 -51.967,0.5 -77.172,-10.3 -7.042,2.1 -13.195,-0.7 -18.755,-6.4 -11.417,2.7 -23.13,-1 -33.953,0.1 -20.164,2.2 -38.326,-11 -58.194,-8.4 -45.813,5.8 -91.182,3 -135.662,-14.5 -6.375,-0.5 -12.825,-1 -19.2,-1.5 -54.191,7.3 -106.083,-14.6 -159.014,-22.2 -12.75,-2.4 -25.649,-3.6 -38.252,-7.3 -36.102,-10.7 -72.353,-20.4 -109.641,-18.7 -18.756,17.1 -37.956,3.4 -56.934,1.2 -0.815,-0.1 -1.408,-3.6 -2.15,-5.5 -13.788,-5.5 -28.244,-17.7 -41.217,-15.2 -29.208,5.8 -52.486,-11.1 -76.95,-25.5 -6.968,17.9 -14.233,14.8 -21.572,0.5 -7.339,-5.2 -15.197,-11.2 -23.203,-7.3 -35.065,17.1 -67.609,-1.5 -99.634,-14.7 -20.461,-8.4 -40.402,-16.4 -61.752,-19.2 -39.142,-5 -77.913,-13.6 -116.981,-18.2 -65.162,-7.7 -125.728,-46.9 -191.706,-48.9 -2.965,-0.1 -5.782,-4.3 -8.896,-5.2 -54.339,-14.6 -108.233,-32.4 -162.942,-44.9 -51.522,-11.7 -102.451,-27.6 -153.677,-41.7 -41.662,-9.5 -83.398,-18.7 -124.987,-28.6 -9.563,-2.3 -19.051,-10.5 -28.021,-9.4 -35.065,4.2 -67.1643,-17.9 -101.6358,-18.7 -7.4132,-0.2 -14.8264,-8.5 -22.2397,-13 -3.41,1.7 -6.0047,0.7 -8.0062,-3 -71.3894,-8.4 -141.7409,-26.2 -211.9145,-45 -6.0566,-1.7 -11.5349,-7.5 -17.2728,-11.4 -6.2493,-1.1 -12.5654,-2.2 -18.8147,-3.3 -30.8761,-1.4 -61.2258,-6.6 -90.041,-22.6 -30.157,1.5 -57.0374,-17.1 -85.5857,-25.3 -58.1938,-16.6 -111.4282,-49.2 -160.6001,-92.5 -23.9743,-21.1 -48.0747,-44.9 -62.5157,-81.2 -10.6973,-27 -22.551,-53.5 -34.6049,-78.9 -11.7352,-24.6 -33.6412,-40.4 -51.1068,-60.1 -20.6236,0.5 -32.6775,-25.5 -53.1083,-29.7 -16.1757,-3.3 -36.7325,-66.6 -33.834,-89.1 0.2595,-2.1 0.4522,-4.7 1.416,-6.2 16.309,-26.7 16.8873,-61.5 26.4207,-91.5 6.2567,-19.6 17.5323,-37.1 28.6817,-53 15.7309,-22.3 32.5441,-43.6 50.3358,-62.9 25.7165,-27.9 54.2648,-49.3 88.0988,-52.9 57.104,-6 112.2658,-26 168.0133,-42 30.2311,-26.8 65.8072,-20.4 98.9962,-29 19.9119,-6.8 39.8238,-13.5 59.6764,-20.3 9.5408,-2.3 19.0742,-4.7 28.6151,-7.1 v 0 c 5.8638,-3.2 11.5349,-7.1 17.5322,-9.5 37.1848,-14.3 75.7261,-23.9 111.0575,-44 26.2428,-14.9 51.6702,-23 79.3215,-22.6 10.1561,-10.6 19.9416,-21.1 33.5078,-24.1 45.6655,-10 91.1085,-21 136.6262,-31.6 22.091,-15.9 46.258,-18.3 70.499,-21.4 15.939,-2 32.396,-2 46.185,-17.1 24.908,-27.3 54.042,-37.4 85.919,-34.6 6.005,0.5 12.751,1.8 19.497,-9.9 -6.153,-18.9 -19.349,-31.2 -32.025,-43.7 -14.308,-14.1 -29.134,-27.2 -43.738,-40.8 v 0 c -42.33,-24.3 -79.174,-61.4 -118.909,-92 -44.85,-18.6 -76.9488,-63.5 -113.8667,-98.8 -14.6782,-14 -24.6119,-27.8 -22.7586,-52.6 1.6309,-21 -2.7429,-41.6 -12.3801,-55.3 -21.2018,-30.3 -10.4526,-61.3 -4.5962,-91.8 3.2619,-16.9 14.2334,-28.7 24.9085,-39 18.6813,-24.8 23.7964,-55.9 23.1292,-89.6 -0.4448,-17.5 -0.4448,-35.1 -2.0015,-52.4 -7.6357,-80.4 12.5283,-154.5 28.2443,-229.6 10.8971,-71.4 32.0251,-135.6 72.5751,-186 -0.815,-11.3 -3.113,-20.3 -12.231,-25.5 -20.683,-11.7 -42.923,-19.3 -60.9371,-38.9 -34.9904,-17.8 -71.5376,-31.2 -100.5233,-65.8 -8.8959,-5.3 -17.7176,-10.6 -26.5394,-15.9 -3.41,-1.3 -6.746,-2.5 -10.082,-3.7 -61.159,-26.6 -113.2666,-77.8 -170.9489,-113.8 -14.2408,-8.9 -25.457,-26.7 -38.0891,-40.4 l 0.9044,-0.5 c -11.409,-8.5 -17.0134,-22.7 -21.0758,-38.4 -3.3508,-0.1 -5.7378,-2.1 -7.2205,-6.3 -8.2509,-2.9 -11.2755,-11.5 -12.7581,-21.7 -4.7667,-1.5 -7.732,-5.4 -8.5104,-12 -9.0219,-7.9 -18.5553,-14.9 -26.999,-23.8 -9.3481,-9.8 -7.606,-15.2 6.8943,-22.6 2.8319,-1.4 5.9899,-1.8 9.0219,-2.6 3.677,-2.9 7.4132,-5.7 11.0828,-8.5 0.4522,-8.5 1.0971,-17 1.4233,-25.4 1.1565,-35 1.0898,-35 29.386,-38.5 27.3919,-24.7 51.6183,-52.8 63.3534,-96.6 1.9349,-7.1 9.2814,-11.6 14.1148,-17.4 0.059,-5.8 2.1869,-9.1 6.5681,-9.7 4.448,-8.1 8.8959,-16.1 13.3438,-24.2 -4.0624,-11.7 -8.1842,-23.3 -12.3059,-35 -37.0587,-15.6 -76.9567,-11.3 -113.7559,-29.2 -31.4469,10.6 -64.3172,11.9 -94.8671,30.1 -17.2728,10.3 -35.576,-1.4 -52.3299,-10.3 -12.8916,-6.8 -22.299,-19.7 -22.1729,-39.9 0.2594,-30 -10.1784,-55.1 -17.1394,-82.2 -7.3465,-28.4 -20.7496,-56.1 -13.4105,-88.9 -10.4972,-24.3 -17.6509,-51.8 -39.4977,-64.4 -10.0597,-5.8 -12.9583,-20 -7.3539,-33.5 8.9626,-21.3 4.5814,-41.5 1.2899,-63.6 -4.448,-29.9 -15.338,-58.4 -12.1799,-90.1 -1.0305,-13.5 -2.0609,-27 -3.0246,-40.6 5.2782,-26.1 6.4421,-51.2 -2.9653,-77.1 -4.9669,-13.8 -2.5131,-28.4 7.4725,-41.6 21.5947,-28.3 20.9498,-29.4 10.0523,-60.4 -2.7725,-7.9 -6.8943,-15 -9.1479,-23.1 -5.4784,-19.5 2.0609,-30.8 18.4293,-25.1 9.2813,3.3 16.2424,2 21.9135,-6.7 6.4495,-9.8 11.7277,-21.1 17.4655,-31.8 -11.7277,-37.7 -12.5654,-39.4 8.7032,-57.9 13.3363,-11.6 20.6829,-24.8 23.3294,-45.7 1.6086,-12.7 11.7944,-12.8 19.6524,-14.5 5.7379,-18.2 5.4191,-39.9 17.7918,-54 11.0827,9.5 21.2018,10.8 29.8382,2.5 -8.6364,8.3 -18.8222,7 -29.8382,-2.6 2.3796,-13.4 4.7667,-26.9 7.1537,-40.3 -10.4452,-4 -19.3337,-8.6 -9.0886,-26.2 18.496,-31.8 41.1805,-55.2 69.1506,-70.9 25.0048,-14 26.4281,-22 22.5584,-61.3 -0.9044,-8.7 -1.4826,-17.5 -1.4826,-26.3 -0.1261,-14.6 3.8029,-25.1 15.5974,-29.2 23.0699,-8.2 40.2167,-28.7 56.1329,-51.6 20.1047,-28.9 44.2718,-54 60.0619,-86.6 16.6946,-34.7 39.3791,-42.7 65.6145,-47.2 12.9509,-2.2 26.9174,-2.5 32.2549,-23.2 8.97,-34.8 30.7649,-50.6 53.5235,-63 19.7192,-10.7 38.4005,-19.6 50.0393,-47.4 4.8927,-11.5 18.1624,-19.8 28.615,-23.1 17.0504,-5.3 27.8737,-22.2 41.9588,-32.7 v 0 c 5.7824,-1.9 11.4905,-3.9 17.2729,-5.7 0.9637,-11.1 2.5204,-21.6 9.563,-29.2 21.5723,-23.1 44.1833,-44.1 69.7583,-58.6 7.488,-13.9 13.863,-30 29.653,-28.7 -0.07,0 -0.148,-1.7 -0.148,-1.7 22.833,-11.4 44.998,-27.5 68.498,-33.1 60.937,-14.4 122.244,-27.2 184.515,-28.1 16.754,-0.3 32.47,1.4 47.074,14.1 6.746,5.7 17.718,14.6 22.017,11.2 19.942,-15.7 38.771,-0.6 57.453,1.4 40.402,4.4 80.063,16.8 116.758,42.3 18.237,-1.8 35.732,0.1 52.263,12.6 41.292,31.2 87.847,31.7 132.994,36.9 26.242,3 52.04,4.1 77.319,15.5 15.42,6.9 32.174,13.5 48.112,12.6 69.685,-4.1 136.404,22 204.383,34.2 77.765,13.9 154.343,38.7 232.627,48.5 27.651,3.5 55.451,7.5 82.731,13 32.47,6.6 64.347,15.9 97.41,13 4.819,-0.4 10.156,0.1 14.53,2.6 21.869,12.5 44.776,12.1 67.831,11 9.934,-0.5 19.793,0.4 26.688,12.5 8.154,-0.5 17.05,-3.8 24.537,-0.9 36.844,14.4 74.8,11.8 112.385,15.3 27.577,2.6 55.821,5.1 82.435,14.4 26.169,9.2 51.893,9.8 78.209,9.2 9.86,-0.2 20.535,-3.5 29.431,0.5 36.844,16.5 74.651,12 112.31,13.5 16.161,0.7 32.322,3.6 48.631,7.3 31.655,7.3 63.457,13.7 96.52,9.1 31.877,-4.5 65.904,-12.5 94.667,20 4.226,4.7 13.121,5.8 18.83,3.6 34.1,-13.2 67.238,-16.8 98.521,11.2 28.615,-3.8 54.488,15.7 82.361,17.8 27.503,2.1 35.732,42.8 59.825,54.5 2.817,-5.1 6.301,-9.7 8.377,-15.3 12.158,-33.3 15.642,-35.1 32.544,-11.8 5.782,7.9 10.304,20.3 18.459,20.3 22.907,-0.1 30.098,20.2 36.918,44.1 2.817,9.7 8.451,19.5 14.752,25.6 14.159,13.8 20.535,34 27.948,53.6 16.457,-0.3 32.989,-0.5 49.372,-0.8 9.489,-21.1 9.637,-45.3 11.491,-68.3 12.528,-1.6 24.389,16.2 35.361,-4.6 3.558,-6.8 11.638,0.4 16.754,6.2 11.861,13.5 16.753,31.1 17.05,51.6 22.388,8.6 41.143,31.2 65.903,30.6 2.447,5.6 6.153,10.8 7.34,16.8 -1.187,-6 -4.893,-11.2 -7.34,-16.8 27.133,-12.4 56.044,-3.9 83.622,-13 10.156,-3.3 19.052,5.4 22.832,18.2 2.966,9.6 2.743,20.9 3.929,31.4 11.862,4.1 21.944,13.9 23.723,29.6 4.077,35.1 21.35,51.5 42.922,64.5 11.861,7.1 23.426,15.2 34.027,25 14.456,13.4 15.864,25.2 8.673,50.6 -2.965,10.2 -5.856,20.4 -8.747,30.6 9.859,3.4 15.864,11.4 16.68,25.7 0.889,16.7 8.08,25.8 19.645,29.6 11.268,-0.1 26.242,-4.9 31.432,10.2 9.34,27.1 29.727,46.6 30.097,79.6 l -1.556,3.9 c 39.957,-13.4 64.569,17.7 86.141,55.7 8.674,15.3 4.3,31.1 -12.083,37.6 -10.675,4.2 -12.306,11.2 -10.898,23.3 5.338,1.4 10.675,2.8 16.013,4.3 18.014,-11.1 26.317,7.6 37.288,20.7 8.155,9.6 26.984,6.5 27.133,23.7 0.148,23.5 -20.387,14.6 -30.246,24 -12.973,12.3 -28.393,8.5 -42.849,10.7 1.112,8.1 -0.37,18.8 8.155,20.9 12.677,3.1 25.798,4.1 38.326,7.9 14.234,4.3 28.171,10.1 41.885,16.3 7.784,3.5 11.342,18.3 7.339,27.3 -2.52,5.5 -6.005,10.1 -9.044,15.2 -11.046,18.6 -11.046,37.1 1.631,48.7 9.266,8.5 19.867,14.6 30.32,20.2 22.833,12.2 42.033,30.9 58.564,55.1 30.988,5.2 58.417,25.3 71.538,60.7 9.785,26.3 26.539,36.4 39.364,54.7 12.825,10.7 26.614,15 41.737,16.8 22.091,2.7 31.358,22.7 24.019,50.4 -3.781,14.4 -10.972,27.1 -8.081,43.7 8.081,1.4 17.866,-0.7 24.019,4.7 23.574,20.9 50.039,31.8 76.282,43.7 9.785,4.4 16.383,12.8 21.202,25.6 7.339,19.4 21.35,29.2 36.176,29.3 24.835,0.2 46.036,3 51.3,43.8 0.593,4.6 7.71,7.2 11.194,11.7 13.937,18.4 14.011,18.6 2.15,47.3 -4.152,9.9 -2.298,19.5 4.967,19.6 17.94,0.3 31.506,7.5 40.55,29.4 5.337,12.9 14.604,18.3 25.057,13.8 26.91,-11.6 51.225,5.1 76.43,8.8 3.706,54.2 1.26,60.9 -28.319,79.1 -2.965,1.9 -6.078,3.2 -9.192,4.7 -35.213,16.7 -70.574,33.5 -105.787,50.1 -35.435,16.7 -70.944,33.1 -106.231,50 -9.193,4.4 -18.978,9.1 -18.459,26.3 -3.262,7.7 -6.376,15.5 -9.786,23 3.41,-7.5 6.524,-15.3 9.712,-22.9 7.413,4.7 14.604,10.4 22.239,14 29.653,13.7 58.268,28.7 75.912,67.6 2.965,6.6 10.156,12.5 15.938,13.5 14.234,2.6 22.981,15.2 32.915,26.6 14.975,17.1 29.579,35.9 46.629,48.1 32.841,23.5 55.599,62.2 76.06,99.8 20.09,36.8 41.885,72.6 60.788,111 20.609,41.6 47,79 89.626,80.8 9.489,0.4 19.2,5.6 28.17,10.8 25.873,15 43.219,39 42.033,80.2 20.313,60.4 42.626,120 22.907,189.6 -2.594,9.1 -0.445,22.6 2.743,32.2 8.525,25.8 18.756,50.7 28.244,76 0.07,-0.1 2.521,2.6 2.521,2.6 7.561,2.5 11.639,9.4 13.195,19.3 10.972,8 12.232,23.9 16.458,37.3 5.263,8 5.782,17.7 5.93,27.7 12.603,3.8 28.319,-6.6 36.844,15 19.275,5.4 19.349,5.4 21.647,37.5 23.944,12.5 41.069,39.9 65.755,52.1 16.383,8.1 16.013,53.6 -0.07,66.7" />
    </g>
    <g
       id="g42"
       clip-path="url(#clipPath46)"
       transform="matrix(0.53019222,-0.38120586,-0.38120586,-0.53019222,125.03782,615.66331)">
      <g
         id="g48"
         transform="translate(358.0034,571.4365)" />
      <g
         id="g52"
         transform="translate(516.1982,479.2754)" />
      <g
         id="g56"
         transform="translate(586.333,546.9902)" />
      <g
         id="g60"
         transform="translate(332.8437,362.3857)" />
      <g
         id="g64"
         transform="translate(459.8306,408.1055)" />
      <g
         id="g68"
         transform="translate(472.8726,375.2187)" />
      <g
         id="g72"
         transform="translate(566.2061,382.2168)" />
      <g
         id="g76"
         transform="translate(676.7324,374.3428)" />
      <g
         id="g80"
         transform="translate(466.7998,507.4941)" />
      <g
         id="g84"
         transform="translate(399.7368,388.0371)" />
      <g
         id="g88"
         transform="translate(668.7646,535.875)" />
      <g
         id="g92"
         transform="translate(340.644,479.0068)">
        <path
           d="M 0,0 C -0.219,-4.072 7.664,-2.133 0,0"
           style="fill:#ffffff;fill-opacity:1;fill-rule:nonzero;stroke:none"
           id="path94"
           inkscape:connector-curvature="0" />
      </g>
      <g
         id="g96"
         transform="translate(385.041,652.8857)">
        <path
           d="m 0,0 c -4.595,-1.249 -9.135,-2.68 -13.662,-4.165 -0.456,-0.835 -0.924,-1.664 -1.39,-2.494 0.55,-1.197 0.637,-2.62 0.27,-3.894 -3.184,-21.275 -9.38,-62.676 -14.54,-75.918 -5.376,-14.545 -18.815,-59.941 -21.645,-77.739 -0.377,-3.978 2.074,-8.227 6.507,-9.65 0.022,-0.006 0.041,-0.012 0.063,-0.019 0.016,0.299 0.072,0.626 0.184,0.99 3.079,8.646 13.898,51.569 23.393,66.811 0.202,0.326 5.828,10.819 6.182,11.018 9.635,5.412 11.021,49.399 10.569,78.781 -0.006,0.373 0.096,0.698 0.267,0.974 -0.518,2.179 0.272,4.716 2.363,5.796 0.488,0.408 1.08,0.721 1.776,0.896 C 0.153,-5.724 0.044,-2.84 0,0"
           style="fill:#ffffff;fill-opacity:1;fill-rule:nonzero;stroke:none"
           id="path98"
           inkscape:connector-curvature="0" />
      </g>
      <g
         id="g100"
         transform="translate(461.7324,632.0767)">
        <path
           d="m 0,0 c -8.732,34.381 -44.69,33.704 -69.089,29.647 5.978,2.061 10.864,3.701 10.864,3.701 l -0.934,0.089 c -2.015,0.19 -2.615,2.844 -0.879,3.884 l 13.469,8.064 -0.139,-0.036 c -2.326,-0.597 -3.665,2.551 -1.622,3.813 l 3.64,2.249 c 1.71,1.055 1.097,3.679 -0.903,3.869 l -0.558,0.053 12.416,4.803 c 1.016,0.393 1.018,1.829 0.004,2.226 l -0.632,0.247 c -1.551,0.606 -1.809,2.692 -0.453,3.658 1.704,1.215 0.759,3.904 -1.331,3.812 -25.239,-1.107 -38.013,-16.263 -44.378,-30.116 -0.865,-1.883 -3.62,-1.53 -3.956,0.515 -2.95,17.946 -13.919,43.473 -51.483,52.601 -2.013,0.489 -3.468,-1.89 -2.085,-3.432 1.749,-1.951 3.723,-4.154 5.283,-5.894 1.155,-1.288 0.336,-3.335 -1.386,-3.482 l -1.643,-0.141 18.536,-9.643 -0.683,-0.04 c -2.002,-0.116 -2.713,-2.707 -1.051,-3.829 l 11.166,-7.539 -0.674,0.064 c -2.085,0.198 -3.139,-2.449 -1.488,-3.738 l 7.98,-6.233 c 0.993,-0.776 0.263,-2.361 -0.972,-2.111 l -0.747,0.151 c -1.175,0.237 -1.933,-1.205 -1.065,-2.031 4.611,-4.392 13.351,-12.889 18.066,-18.593 l -0.521,0.05 c -10.377,13.11 -43.222,45.347 -81.11,-9.956 -1.252,-1.827 0.815,-4.112 2.749,-3.032 l 5.819,3.249 c 0.979,0.546 2.103,-0.434 1.695,-1.478 l -0.115,-0.295 c -0.432,-1.103 0.832,-2.093 1.799,-1.411 l 8.731,6.156 c 1.009,0.711 2.303,-0.39 1.762,-1.499 l -0.04,-0.084 c -0.528,-1.081 0.695,-2.175 1.711,-1.532 l 11.022,6.976 c 0.941,0.595 2.113,-0.307 1.778,-1.368 l -0.534,-1.694 c -0.3,-0.949 0.625,-1.826 1.557,-1.478 l 14.766,5.529 c 1.048,0.392 2.012,-0.743 1.455,-1.713 l -0.151,-0.262 c -0.517,-0.9 0.282,-1.985 1.294,-1.761 l 12.355,2.742 c 1.095,0.243 1.891,-1.022 1.198,-1.904 l -0.811,-1.032 c -0.729,-0.927 0.179,-2.231 1.303,-1.874 1.547,0.49 3.432,1.038 5.394,1.491 -15.589,-7.451 -42.528,-25.996 -34.264,-63.144 0.462,-2.074 3.386,-2.206 4.046,-0.187 l 4.486,13.728 1.541,-5.928 3.341,18.607 2.161,-4.936 4.384,18.51 0.92,-6.922 5.277,16.847 1.119,-4.837 2.183,7.265 c 0.314,1.045 1.751,1.155 2.221,0.171 l 0.211,-0.442 c 0.432,-0.903 1.71,-0.919 2.146,-0.018 0.561,1.159 1.316,2.663 2.19,4.266 -0.207,-1.45 -0.437,-3.054 -0.674,-4.709 1.269,0.601 2.755,0.953 4.469,0.953 2.68,0 4.806,-0.852 6.399,-2.196 0.861,0.877 2.444,0.939 3.254,-0.305 0.302,-0.463 0.576,-0.889 0.817,-1.266 0.505,-0.791 1.675,-0.707 2.078,0.14 l 0.713,1.503 c 0.414,0.871 1.638,0.918 2.116,0.079 l 7.431,-13.018 -0.252,8.435 9.634,-20.364 -0.35,7.393 4.753,-12.748 c 0.677,-1.815 3.242,-1.82 3.925,-0.008 l 0.134,0.355 -0.335,-17.04 c -0.024,-1.181 1.5,-1.675 2.174,-0.704 l 0.627,0.903 c 0.701,1.009 2.286,0.429 2.17,-0.794 l -0.776,-8.178 c -0.115,-1.219 1.46,-1.802 2.165,-0.801 l 0.063,0.089 c 0.675,0.958 2.182,0.473 2.17,-0.699 l -0.102,-10.65 c -0.023,-2.34 3.214,-2.939 4.064,-0.758 16.737,42.954 -5.862,64.904 -24.54,75.021 l -0.893,1.662 18.014,-9.594 -1.147,1.507 c -1.278,1.678 0.446,3.981 2.417,3.227 l 8.107,-3.103 c 1.065,-0.408 2.04,0.766 1.446,1.738 -0.634,1.036 0.502,2.246 1.575,1.68 l 7.947,-4.189 c 1.747,-0.921 3.681,0.864 2.904,2.679 l -0.253,0.589 13.084,-8.983 c 0.161,-0.11 0.305,-0.242 0.429,-0.392 l 2.254,-2.725 C -2.216,-3.617 0.553,-2.18 0,0"
           style="fill:#8cc63f;fill-opacity:1;fill-rule:nonzero;stroke:none"
           id="path102"
           inkscape:connector-curvature="0" />
      </g>
      <g
         id="g104"
         transform="translate(566.3223,481.8584)">
        <path
           d="M 0,0 C 0.207,0.626 0.387,0.775 0.169,-0.01"
           style="fill:#ffffff;fill-opacity:1;fill-rule:nonzero;stroke:none"
           id="path106"
           inkscape:connector-curvature="0" />
      </g>
      <g
         id="g108"
         transform="translate(606.6094,539.6284)" />
      <g
         id="g112"
         transform="translate(335.2617,365.8467)" />
      <g
         id="g116"
         transform="translate(442.8081,480.3506)" />
      <g
         id="g120"
         transform="translate(442.8081,480.3506)" />
    </g>
  </g>
</svg>
