<?xml version="1.0" encoding="UTF-8" standalone="no"?>
<svg
   xmlns:dc="http://purl.org/dc/elements/1.1/"
   xmlns:cc="http://creativecommons.org/ns#"
   xmlns:rdf="http://www.w3.org/1999/02/22-rdf-syntax-ns#"
   xmlns:svg="http://www.w3.org/2000/svg"
   xmlns="http://www.w3.org/2000/svg"
   xmlns:sodipodi="http://sodipodi.sourceforge.net/DTD/sodipodi-0.dtd"
   xmlns:inkscape="http://www.inkscape.org/namespaces/inkscape"
   inkscape:version="1.0beta2 (2b71d25, 2019-12-03)"
   height="48.111549"
   width="36.700001"
   sodipodi:docname="icon-back.svg"
   id="svg841"
   xml:space="preserve"
   enable-background="new 0 0 50 50"
   viewBox="0 0 36.700001 48.111549"
   y="0px"
   x="0px"
   version="1.1"><metadata
     id="metadata847"><rdf:RDF><cc:Work
         rdf:about=""><dc:format>image/svg+xml</dc:format><dc:type
           rdf:resource="http://purl.org/dc/dcmitype/StillImage" /><dc:title></dc:title></cc:Work></rdf:RDF></metadata><defs
     id="defs845" /><sodipodi:namedview
     inkscape:current-layer="svg841"
     inkscape:window-maximized="0"
     inkscape:window-y="23"
     inkscape:window-x="0"
     inkscape:cy="22.531442"
     inkscape:cx="21.875551"
     inkscape:zoom="16.688"
     fit-margin-bottom="0"
     fit-margin-right="0"
     fit-margin-left="0"
     fit-margin-top="0"
     showgrid="false"
     id="namedview843"
     inkscape:window-height="1066"
     inkscape:window-width="1654"
     inkscape:pageshadow="2"
     inkscape:pageopacity="0"
     guidetolerance="10"
     gridtolerance="10"
     objecttolerance="10"
     borderopacity="1"
     inkscape:document-rotation="0"
     bordercolor="#666666"
     pagecolor="#ffffff" /><g
     transform="translate(-6.6,-0.98845215)"
     id="g835"><path
       inkscape:connector-curvature="0"
       style="fill:#8cc63f;fill-opacity:1"
       id="path833"
       d="m 38.8,48.7 h 4.5 C 43.2,48.4 43,42.8 43,42.8 44,34.8 40.4,30.1 39.5,26.9 39.1,25.4 43,19.3 33.5,17.1 26.1,15.4 29.1,9.9 29.1,9.9 31.4,0.3 25,1 25,1 c 0,0 -6.4,-0.7 -4.2,8.8 0,0 2.9,5.5 -4.4,7.2 -7.1,1.6 -6.9,5.4 -6,9.1 0.2,0.8 -0.3,1.8 -1.2,3.8 -0.4,1 -3.1,6 -2.3,12.9 0,0 -0.1,5.6 -0.3,5.9 h 4.5 c -0.7,-1.4 -0.9,-3.2 -0.3,-4.8 0.5,-1.3 1,-2.7 1.4,-3.2 1.8,-2.3 1.2,-8.3 2.8,-9.3 0,0 2.4,3.6 1.5,6.9 -0.2,0.7 -0.3,2.1 -0.1,3.1 0.2,1.1 -0.6,1.2 -1.2,3.8 -0.3,1.2 -0.5,2.7 -0.4,3.9 H 35 c 0.1,-1.5 -0.3,-4.6 -1.3,-6.5 -0.2,-0.3 -0.3,-0.7 -0.3,-1.2 0.2,-1 0.1,-2.4 -0.1,-3.1 -0.9,-3.3 1.5,-6.9 1.5,-6.9 1.6,1 1,7.1 2.8,9.3 0.4,0.5 0.9,1.9 1.4,3.2 0.7,1.6 0.6,3.3 -0.2,4.8 z M 15.1,19.6 c -0.3,0 -1.2,0.2 -1.2,-0.4 0,-0.2 0.3,-0.3 0.5,-0.4 0.6,-0.2 1.2,-0.5 1.8,-0.8 0,0 0,0 0,0 9.2,-2.4 4.9,-7.2 6.6,-8.7 0.4,-0.3 1,-0.2 1.3,0.1 0.4,0.5 0.3,1.2 0.2,1.9 l 0.1,20.9 C 23.1,31.5 21,24 21,24 20.2,21.6 16.2,19.6 15.1,19.6 Z M 22,43.7 c -0.1,0 -0.4,0 -0.4,-0.2 0.1,-0.4 0.7,-0.3 0.9,-0.6 0.1,-0.2 0.2,-0.6 0.4,-0.6 0,0 0.1,0 0.1,0 1.2,-0.1 2.5,-0.8 3.6,0.1 0.4,-0.2 0.5,0.2 0.7,0.6 0.2,0.3 0.8,0.3 0.8,0.7 0,0.1 -0.3,0.2 -0.4,0.2 0,0 -0.8,-0.7 -1.1,-0.9 0,0 0,0 0,0 0,0.1 -0.1,0.7 -0.2,0.7 -1,-0.5 -1.9,-0.2 -3.4,0 -0.2,0 -0.3,-0.1 -0.3,-0.3 l 0.1,-0.3 c -0.1,0 -0.7,0.5 -0.8,0.6 z m 5.8,-2.1 c 0,0 -0.8,-0.7 -1.1,-0.9 0,0 0,0 0,0 0,0.1 -0.1,0.7 -0.2,0.7 -1,-0.5 -2,-0.2 -3.4,0 -0.2,0 -0.3,-0.1 -0.3,-0.3 l 0.1,-0.3 c -0.2,0.1 -0.8,0.6 -0.9,0.7 -0.1,0 -0.4,0 -0.4,-0.2 0.1,-0.4 0.7,-0.3 0.9,-0.6 0.1,-0.2 0.2,-0.6 0.4,-0.6 0,0 0.1,0 0.1,0 1.2,-0.1 2.5,-0.8 3.6,0.1 0.4,-0.2 0.5,0.2 0.7,0.6 0.2,0.3 0.8,0.3 0.8,0.7 0.1,0.1 -0.2,0.1 -0.3,0.1 z m 0,-1.9 c 0,0 -0.6,-0.7 -0.9,-0.9 0,0 0,0 0,0 0,0.1 -0.2,0.5 -0.2,0.6 C 26.1,39 25.3,39 24.6,39.1 24.3,39 24,39 23.7,39 23.5,39 23.4,38.9 23.4,38.7 l 0.1,-0.2 c -0.2,0.1 -0.8,0.4 -0.9,0.4 -0.1,0 -0.4,-0.1 -0.4,-0.2 0.1,-0.3 0.6,-0.2 0.8,-0.4 0.1,-0.1 0.3,-0.4 0.5,-0.4 0,0 0,0 0.1,0 1.1,0.1 2.3,-0.3 3.2,0.5 0.4,-0.1 0.4,0.2 0.6,0.5 0.1,0.3 0.6,0.3 0.7,0.7 0.1,0.2 -0.2,0.2 -0.3,0.1 z m -6.2,5.9 c 0.1,-0.4 0.7,-0.3 0.9,-0.6 0.1,-0.2 0.2,-0.6 0.4,-0.6 0,0 0.1,0 0.1,0 1.2,-0.1 2.5,-0.8 3.6,0.1 0.4,-0.2 0.5,0.2 0.7,0.6 0.2,0.3 0.8,0.3 0.8,0.7 0,0.1 -0.3,0.2 -0.4,0.2 0,0 -0.8,-0.7 -1.1,-0.9 0,0 0,0 0,0 -0.1,0.4 -0.1,0.7 -0.1,0.7 -0.8,-0.3 -1.8,-0.2 -2.6,0 -0.5,0 -1.1,0.2 -1.1,-0.3 l 0.1,-0.3 c -0.2,0.1 -0.8,0.7 -0.9,0.7 -0.1,-0.1 -0.4,-0.1 -0.4,-0.3 z m 6.3,2.4 c 0,0 -0.8,-0.7 -1.1,-0.9 0,0 0,0 0,0 -0.1,0.4 -0.1,0.9 -0.4,0.9 -0.6,-0.1 -2.1,-0.3 -3.1,-0.1 -0.2,0 -0.3,-0.1 -0.3,-0.3 l 0.1,-0.3 c -0.2,0.1 -0.8,0.7 -0.9,0.7 -0.1,0 -0.5,0 -0.4,-0.2 0.1,-0.4 0.7,-0.3 0.9,-0.6 0.1,-0.2 0.2,-0.4 0.4,-0.5 0,0 0.1,0 0.1,0 0,0 0.1,0 0.1,0 1.2,-0.1 2.5,-0.8 3.6,0.1 0.4,-0.2 0.5,0.2 0.7,0.6 0.2,0.3 0.7,0.3 0.8,0.7 0,-0.1 -0.3,0 -0.5,-0.1 z M 28,37.8 c 0,0 -0.7,-0.7 -0.9,-0.9 0,0 0,0 0,0 0,0 -0.2,0.5 -0.2,0.6 -0.8,-0.4 -1.5,-0.4 -2.3,-0.3 -0.4,0 -1.1,0 -1,-0.3 l 0.1,-0.2 c -0.2,0.1 -0.8,0.4 -0.9,0.4 -0.1,0 -0.4,-0.1 -0.4,-0.2 0.1,-0.3 0.6,-0.1 0.8,-0.4 0.1,-0.1 0.3,-0.4 0.5,-0.4 0,0 0,0 0.1,0 1.1,0.1 2.3,-0.3 3.2,0.5 0.4,-0.1 0.4,0.2 0.6,0.5 0.1,0.3 0.6,0.3 0.7,0.7 0.1,0.1 -0.2,0.1 -0.3,0 z M 28,36 c -0.1,0 -0.8,-0.9 -0.9,-0.9 L 27,35.5 c 0,0 0,0 0,0.1 -0.9,-0.4 -1.5,-0.3 -2.4,-0.3 -0.4,0 -1,0 -1,-0.4 l 0.1,-0.2 c -0.2,0.1 -0.8,0.4 -0.9,0.4 -0.1,0 -0.4,-0.1 -0.4,-0.2 0.1,-0.3 0.6,-0.1 0.8,-0.4 0.1,-0.1 0.3,-0.4 0.5,-0.4 0,0 0,0 0.1,0 1.1,0.1 2.3,-0.3 3.2,0.5 0.4,-0.1 0.4,0.2 0.6,0.6 0.1,0.3 0.6,0.3 0.7,0.6 C 28.4,36 28.1,36 28,36 Z m 6.9,-16.4 c -1,0 -5.1,1.9 -5.9,4.4 0,0 -2.1,7.6 -3.4,8.4 l 0.1,-20.9 c -0.1,-0.6 -0.2,-1.4 0.2,-1.9 0.3,-0.3 0.9,-0.4 1.3,-0.1 1.6,1.3 -2.6,6.2 6.6,8.7 0,0 0,0 0,0 0.6,0.3 1.2,0.5 1.8,0.8 0.2,0.1 0.4,0.2 0.5,0.4 0,0.4 -0.9,0.2 -1.2,0.2 z" /></g></svg>
