<?xml version="1.0" encoding="UTF-8" standalone="no"?>
<svg
   xmlns:dc="http://purl.org/dc/elements/1.1/"
   xmlns:cc="http://creativecommons.org/ns#"
   xmlns:rdf="http://www.w3.org/1999/02/22-rdf-syntax-ns#"
   xmlns:svg="http://www.w3.org/2000/svg"
   xmlns="http://www.w3.org/2000/svg"
   xmlns:sodipodi="http://sodipodi.sourceforge.net/DTD/sodipodi-0.dtd"
   xmlns:inkscape="http://www.inkscape.org/namespaces/inkscape"
   width="91"
   height="64"
   version="1.1"
   id="svg1973"
   sodipodi:docname="icon-plans.svg"
   inkscape:version="1.0beta2 (2b71d25, 2019-12-03)">
  <metadata
     id="metadata1979">
    <rdf:RDF>
      <cc:Work
         rdf:about="">
        <dc:format>image/svg+xml</dc:format>
        <dc:type
           rdf:resource="http://purl.org/dc/dcmitype/StillImage" />
        <dc:title />
      </cc:Work>
    </rdf:RDF>
  </metadata>
  <defs
     id="defs1977" />
  <sodipodi:namedview
     pagecolor="#ffffff"
     bordercolor="#666666"
     inkscape:document-rotation="0"
     borderopacity="1"
     objecttolerance="10"
     gridtolerance="10"
     guidetolerance="10"
     inkscape:pageopacity="0"
     inkscape:pageshadow="2"
     inkscape:window-width="1564"
     inkscape:window-height="1126"
     id="namedview1975"
     showgrid="false"
     inkscape:zoom="13.706993"
     inkscape:cx="41.460701"
     inkscape:cy="58.611501"
     inkscape:window-x="739"
     inkscape:window-y="301"
     inkscape:window-maximized="0"
     inkscape:current-layer="g1971" />
  <g
     fill="none"
     fill-rule="evenodd"
     id="g1971">
    <path
       style="stroke:#8cc63f;stroke-opacity:1;stroke-width:1.403;stroke-miterlimit:4;stroke-dasharray:none"
       inkscape:connector-curvature="0"
       id="path1961-5"
       stroke-linejoin="round"
       stroke-width=".803"
       stroke="#FFF"
       d="m 33.766,49.33 v 3.84 h 3.757 L 49.421,41.006 45.664,37.165 33.766,49.329 Z m 15.655,-8.324 1.328,-1.358 a 1.951,1.951 0 0 0 0,-2.717 l -1.1,-1.124 a 1.85,1.85 0 0 0 -2.657,0 l -1.328,1.358 z" />
    <path
       d="M85.588 59C88.025 59 90 57.144 90 54.853V9.236c0-1.526-1.318-2.764-2.941-2.764L85.589 59zM15 12.048v40.047C15 55.908 18.098 59 21.92 59h63.668a4.147 4.147 0 0 1-4.152-4.143V3.762A2.766 2.766 0 0 0 78.668 1h-16.61l-5.536 8.286H17.768A2.766 2.766 0 0 0 15 12.048z"
       stroke="#62E0D9"
       stroke-width="1.405"
       stroke-linecap="round"
       stroke-linejoin="round"
       id="path1957"
       style="stroke:#8cc63f;stroke-opacity:1" />
    <path
       d="M41.28 27.561v3.201c0 1.061.841 1.92 1.88 1.92h3.13m2.505 0v-.219c0-.679-.264-1.33-.734-1.811l-4.794-4.902a2.48 2.48 0 0 0-1.772-.75h-13.99C26.12 25 25 26.147 25 27.561v26.89c0 1.414 1.121 2.56 2.505 2.56H46.29c1.383 0 2.505-1.146 2.505-2.56v-8.963"
       fill="#62E0D9"
       id="path1959"
       style="fill:#8cc63f;fill-opacity:1" />
    <path
       d="M33.766 49.33v3.84h3.757l11.898-12.164-3.757-3.841-11.898 12.164zm15.655-8.324l1.328-1.358a1.951 1.951 0 0 0 0-2.717l-1.1-1.124a1.85 1.85 0 0 0-2.657 0l-1.328 1.358 3.757 3.841z"
       stroke="#FFF"
       stroke-width=".803"
       stroke-linejoin="round"
       id="path1961" />
    <path
       d="M30.01 37.805h12.523m-12.524 3.841h11.272m-11.272 3.842h7.514"
       stroke="#FFF"
       stroke-width=".803"
       stroke-linecap="round"
       stroke-linejoin="round"
       id="path1963" />
    <g
       id="g1969">
      <path
         d="m 32.367,59.432 c 0,1.972 -1.61,3.572 -3.596,3.572 H 3.596 C 1.611,63.004 0,61.404 0,59.432 V 41.572 C 0,39.6 1.61,38 3.596,38 h 25.175 c 1.985,0 3.596,1.6 3.596,3.572 z"
         fill="#62E0D9"
         id="path1965"
         inkscape:connector-curvature="0"
         sodipodi:nodetypes="sssssssss"
         style="fill:#8cc63f;fill-opacity:1" />
    </g>
    <path
       sodipodi:nodetypes="cccccccccccccccccccc"
       inkscape:connector-curvature="0"
       id="path118"
       style="fill:#ffffff;fill-opacity:1;fill-rule:nonzero;stroke:none;stroke-width:0.208716"
       d="m 21.066407,48.579678 -0.182418,0.65516 c -1.002672,-1.264194 -2.514403,-1.882411 -4.143224,-2.328647 -1.628821,-0.446026 -3.260981,-0.688554 -4.83533,-0.130447 l 0.101855,-0.496536 c 0.362958,-1.156287 1.921859,-2.51336 3.159337,-2.174405 l 4.496581,1.231425 c 1.237896,0.338955 1.765948,2.087163 1.403199,3.24345 m 0.897063,2.548215 c 0.76244,-0.485682 1.318042,-1.19636 1.57852,-2.026842 l 0.353147,-1.125189 C 24.515442,45.998485 23.2477,44.678146 21.217101,43.679023 l -6.131873,-1.679332 c -2.116589,-0.579604 -4.366134,0.220405 -4.986648,2.197782 l -0.3531481,1.125189 c -0.2604772,0.830481 -0.2037055,1.708759 0.1571637,2.502298 -1.2729569,0.917725 -2.1900573,2.154577 -2.6642603,3.595554 -1.1832124,3.594509 0.8204642,7.506477 4.5690047,8.877533 4.293084,1.569964 9.023427,-0.661839 10.292003,-4.70488 0.464811,-1.481467 0.417224,-3.019288 -0.135873,-4.465274" />
  </g>
</svg>
