<?xml version="1.0" encoding="UTF-8" standalone="no"?>
<svg
   xmlns:dc="http://purl.org/dc/elements/1.1/"
   xmlns:cc="http://creativecommons.org/ns#"
   xmlns:rdf="http://www.w3.org/1999/02/22-rdf-syntax-ns#"
   xmlns:svg="http://www.w3.org/2000/svg"
   xmlns="http://www.w3.org/2000/svg"
   xmlns:sodipodi="http://sodipodi.sourceforge.net/DTD/sodipodi-0.dtd"
   xmlns:inkscape="http://www.inkscape.org/namespaces/inkscape"
   inkscape:version="1.0beta2 (2b71d25, 2019-12-03)"
   sodipodi:docname="plans.svg"
   id="svg1973"
   version="1.1"
   height="64"
   width="91">
  <metadata
     id="metadata1979">
    <rdf:RDF>
      <cc:Work
         rdf:about="">
        <dc:format>image/svg+xml</dc:format>
        <dc:type
           rdf:resource="http://purl.org/dc/dcmitype/StillImage" />
        <dc:title></dc:title>
      </cc:Work>
    </rdf:RDF>
  </metadata>
  <defs
     id="defs1977" />
  <sodipodi:namedview
     inkscape:current-layer="g1971"
     inkscape:window-maximized="0"
     inkscape:window-y="23"
     inkscape:window-x="0"
     inkscape:cy="-27.428571"
     inkscape:cx="-85.738095"
     inkscape:zoom="2.4230769"
     showgrid="false"
     id="namedview1975"
     inkscape:window-height="1126"
     inkscape:window-width="1564"
     inkscape:pageshadow="2"
     inkscape:pageopacity="0"
     guidetolerance="10"
     gridtolerance="10"
     objecttolerance="10"
     borderopacity="1"
     inkscape:document-rotation="0"
     bordercolor="#666666"
     pagecolor="#ffffff" />
  <g
     id="g1971"
     fill-rule="evenodd"
     fill="none">
    <path
       style="stroke:#8cc63f;stroke-opacity:1"
       id="path1957"
       stroke-linejoin="round"
       stroke-linecap="round"
       stroke-width="1.405"
       stroke="#62E0D9"
       d="M85.588 59C88.025 59 90 57.144 90 54.853V9.236c0-1.526-1.318-2.764-2.941-2.764L85.589 59zM15 12.048v40.047C15 55.908 18.098 59 21.92 59h63.668a4.147 4.147 0 0 1-4.152-4.143V3.762A2.766 2.766 0 0 0 78.668 1h-16.61l-5.536 8.286H17.768A2.766 2.766 0 0 0 15 12.048z" />
    <path
       style="fill:#8cc63f;fill-opacity:1"
       id="path1959"
       fill="#62E0D9"
       d="M41.28 27.561v3.201c0 1.061.841 1.92 1.88 1.92h3.13m2.505 0v-.219c0-.679-.264-1.33-.734-1.811l-4.794-4.902a2.48 2.48 0 0 0-1.772-.75h-13.99C26.12 25 25 26.147 25 27.561v26.89c0 1.414 1.121 2.56 2.505 2.56H46.29c1.383 0 2.505-1.146 2.505-2.56v-8.963" />
    <path
       id="path1961"
       stroke-linejoin="round"
       stroke-width=".803"
       stroke="#FFF"
       d="M33.766 49.33v3.84h3.757l11.898-12.164-3.757-3.841-11.898 12.164zm15.655-8.324l1.328-1.358a1.951 1.951 0 0 0 0-2.717l-1.1-1.124a1.85 1.85 0 0 0-2.657 0l-1.328 1.358 3.757 3.841z" />
    <path
       id="path1963"
       stroke-linejoin="round"
       stroke-linecap="round"
       stroke-width=".803"
       stroke="#FFF"
       d="M30.01 37.805h12.523m-12.524 3.841h11.272m-11.272 3.842h7.514" />
    <g
       id="g1969">
      <path
         style="fill:#8cc63f;fill-opacity:1"
         sodipodi:nodetypes="sssssssss"
         inkscape:connector-curvature="0"
         id="path1965"
         fill="#62E0D9"
         d="m 32.367,59.432 c 0,1.972 -1.61,3.572 -3.596,3.572 H 3.596 C 1.611,63.004 0,61.404 0,59.432 V 41.572 C 0,39.6 1.61,38 3.596,38 h 25.175 c 1.985,0 3.596,1.6 3.596,3.572 z" />
      <line
         x1="5.2898283"
         y1="51.860943"
         x2="25.854832"
         y2="51.860943"
         style="fill:#ffffff;stroke:#ffffff;stroke-width:1.49528px;stroke-linecap:round;stroke-linejoin:round;stroke-opacity:1"
         id="line1983" />
      <rect
         x="21.900024"
         y="46.207352"
         width="1.5819229"
         height="11.307189"
         rx="0.79096144"
         ry="0.70669931"
         style="fill:#ffffff;stroke:#ffffff;stroke-width:1.49528px;stroke-linecap:round;stroke-linejoin:round;stroke-opacity:1"
         id="rect1985" />
      <rect
         x="7.662715"
         y="46.207352"
         width="1.5819229"
         height="11.307189"
         rx="0.79096144"
         ry="0.70669931"
         style="fill:#ffffff;stroke:#ffffff;stroke-width:1.49528px;stroke-linecap:round;stroke-linejoin:round;stroke-opacity:1"
         id="rect1987" />
      <rect
         x="4.4988661"
         y="49.034145"
         width="0.79096144"
         height="5.6535945"
         rx="0.39548072"
         ry="0.35334966"
         style="fill:#ffffff;stroke:#ffffff;stroke-width:1.49528px;stroke-linecap:round;stroke-linejoin:round;stroke-opacity:1"
         id="rect1989" />
      <rect
         x="25.854832"
         y="49.034145"
         width="0.79096144"
         height="5.6535945"
         rx="0.39548072"
         ry="0.35334966"
         style="fill:#ffffff;stroke:#ffffff;stroke-width:1.49528px;stroke-linecap:round;stroke-linejoin:round;stroke-opacity:1"
         id="rect1991" />
    </g>
  </g>
</svg>
