<?xml version="1.0" encoding="UTF-8" standalone="no"?>
<svg
   xmlns:dc="http://purl.org/dc/elements/1.1/"
   xmlns:cc="http://creativecommons.org/ns#"
   xmlns:rdf="http://www.w3.org/1999/02/22-rdf-syntax-ns#"
   xmlns:svg="http://www.w3.org/2000/svg"
   xmlns="http://www.w3.org/2000/svg"
   xmlns:sodipodi="http://sodipodi.sourceforge.net/DTD/sodipodi-0.dtd"
   xmlns:inkscape="http://www.inkscape.org/namespaces/inkscape"
   inkscape:version="1.0beta2 (2b71d25, 2019-12-03)"
   sodipodi:docname="icon-instagram.svg"
   id="svg18"
   version="1.1"
   viewBox="0 0 448 448"
   height="448"
   width="448">
  <metadata
     id="metadata24">
    <rdf:RDF>
      <cc:Work
         rdf:about="">
        <dc:format>image/svg+xml</dc:format>
        <dc:type
           rdf:resource="http://purl.org/dc/dcmitype/StillImage" />
        <dc:title>ionicons-v5_logos</dc:title>
      </cc:Work>
    </rdf:RDF>
  </metadata>
  <defs
     id="defs22" />
  <sodipodi:namedview
     inkscape:current-layer="svg18"
     inkscape:window-maximized="0"
     inkscape:window-y="23"
     inkscape:window-x="0"
     inkscape:cy="224"
     inkscape:cx="129.50336"
     inkscape:zoom="2.0371094"
     fit-margin-bottom="0"
     fit-margin-right="0"
     fit-margin-left="0"
     fit-margin-top="0"
     showgrid="false"
     id="namedview20"
     inkscape:window-height="1186"
     inkscape:window-width="1929"
     inkscape:pageshadow="2"
     inkscape:pageopacity="0"
     guidetolerance="10"
     gridtolerance="10"
     objecttolerance="10"
     borderopacity="1"
     inkscape:document-rotation="0"
     bordercolor="#666666"
     pagecolor="#ffffff" />
  <title
     id="title10">ionicons-v5_logos</title>
  <path
     inkscape:connector-curvature="0"
     style="fill:#ffffff;fill-opacity:1"
     id="path12"
     d="m 317.33,37.33 a 93.62,93.62 0 0 1 93.34,93.34 v 186.66 a 93.62,93.62 0 0 1 -93.34,93.34 H 130.67 A 93.62,93.62 0 0 1 37.33,317.33 V 130.67 A 93.62,93.62 0 0 1 130.67,37.33 H 317.33 M 317.33,0 H 130.67 C 58.8,0 0,58.8 0,130.67 V 317.33 C 0,389.2 58.8,448 130.67,448 H 317.33 C 389.2,448 448,389.2 448,317.33 V 130.67 C 448,58.8 389.2,0 317.33,0 Z" />
  <path
     inkscape:connector-curvature="0"
     style="fill:#ffffff;fill-opacity:1"
     id="path14"
     d="m 345.33,130.67 a 28,28 0 1 1 28,-28 27.94,27.94 0 0 1 -28,28 z" />
  <path
     inkscape:connector-curvature="0"
     style="fill:#ffffff;fill-opacity:1"
     id="path16"
     d="M 224,149.33 A 74.67,74.67 0 1 1 149.33,224 74.75,74.75 0 0 1 224,149.33 M 224,112 A 112,112 0 1 0 336,224 112,112 0 0 0 224,112 Z" />
</svg>
