<svg
   xmlns:dc="http://purl.org/dc/elements/1.1/"
   xmlns:cc="http://creativecommons.org/ns#"
   xmlns:rdf="http://www.w3.org/1999/02/22-rdf-syntax-ns#"
   xmlns:svg="http://www.w3.org/2000/svg"
   xmlns="http://www.w3.org/2000/svg"
   xmlns:sodipodi="http://sodipodi.sourceforge.net/DTD/sodipodi-0.dtd"
   xmlns:inkscape="http://www.inkscape.org/namespaces/inkscape"
   width="62.138504"
   height="68.781425"
>
 
  <g
     style="fill:#ffffff;fill-opacity:1;stroke:#8cc63f;stroke-opacity:1"
     id="g116"
     transform="matrix(1.3117715,0,0,-1.3117715,114.63192,29.529552)">
    <path
       d="m -48.265389,3.83169 -0.503728,-1.8091519 c -2.768768,3.4909314 -6.943246,5.1980701 -11.441055,6.4302991 -4.497809,1.2316527 -9.00484,1.9013678 -13.352228,0.3602166 l 0.28126,1.3711292 c 1.00227,3.192959 5.307003,6.940365 8.724161,6.004378 l 12.416812,-3.400445 c 3.418311,-0.935986 4.876468,-5.7634656 3.874778,-8.956426 m 2.477138,-7.0366158 c 2.105394,1.3411586 3.639628,3.30361894 4.358909,5.5969021 l 0.975178,3.1070845 c 1.712902,5.4603082 -1.787827,9.1062762 -7.395103,11.8652472 l -16.932487,4.637286 c -5.844726,1.600514 -12.056596,-0.608622 -13.770076,-6.06893 l -0.97518,-3.107085 c -0.71928,-2.293283 -0.56251,-4.7185497 0.43399,-6.9098195 -3.51513,-2.5341961 -6.0476,-5.94962616 -7.35706,-9.9287232 -3.26731,-9.9258413 2.26562,-20.7283053 12.6168,-24.5143263 11.854877,-4.33528 24.917196,1.827594 28.42023,12.992005 1.283524,4.090908 1.152117,8.33743 -0.375201,12.3303592"
       style="fill:#ffffff;fill-opacity:1;fill-rule:nonzero;stroke:#8cc63f;stroke-width:0.576347;stroke-opacity:1"
       id="path118"
       inkscape:connector-curvature="0"
       sodipodi:nodetypes="cccccccccccccccccccc" />
  </g>
</svg>
