<?xml version="1.0" encoding="UTF-8" standalone="no"?>
<svg
   xmlns:dc="http://purl.org/dc/elements/1.1/"
   xmlns:cc="http://creativecommons.org/ns#"
   xmlns:rdf="http://www.w3.org/1999/02/22-rdf-syntax-ns#"
   xmlns:svg="http://www.w3.org/2000/svg"
   xmlns="http://www.w3.org/2000/svg"
   xmlns:sodipodi="http://sodipodi.sourceforge.net/DTD/sodipodi-0.dtd"
   xmlns:inkscape="http://www.inkscape.org/namespaces/inkscape"
   sodipodi:docname="logo.svg"
   inkscape:version="1.0beta2 (2b71d25, 2019-12-03)"
   id="svg1039"
   version="1.1"
   viewBox="0 0 214.03671 172.74715"
   height="172.74715mm"
   width="214.03671mm">
  <defs
     id="defs1033">
    <clipPath
       clipPathUnits="userSpaceOnUse"
       id="clipPath46">
      <path
         d="M 0,1000 H 1000 V 0 H 0 Z"
         id="path44"
         inkscape:connector-curvature="0" />
    </clipPath>
  </defs>
  <sodipodi:namedview
     fit-margin-bottom="0"
     fit-margin-right="0"
     fit-margin-left="0"
     fit-margin-top="0"
     inkscape:window-maximized="0"
     inkscape:window-y="417"
     inkscape:window-x="552"
     inkscape:window-height="1209"
     inkscape:window-width="1600"
     showgrid="false"
     inkscape:document-rotation="0"
     inkscape:current-layer="layer1"
     inkscape:document-units="mm"
     inkscape:cy="300.29402"
     inkscape:cx="359.40291"
     inkscape:zoom="0.35"
     inkscape:pageshadow="2"
     inkscape:pageopacity="0.0"
     borderopacity="1.0"
     bordercolor="#666666"
     pagecolor="#ffffff"
     id="base" />
  <metadata
     id="metadata1036">
    <rdf:RDF>
      <cc:Work
         rdf:about="">
        <dc:format>image/svg+xml</dc:format>
        <dc:type
           rdf:resource="http://purl.org/dc/dcmitype/StillImage" />
        <dc:title></dc:title>
      </cc:Work>
    </rdf:RDF>
  </metadata>
  <g
     transform="translate(-0.91393308,-68.713874)"
     id="layer1"
     inkscape:groupmode="layer"
     inkscape:label="Layer 1">
    <g
       transform="matrix(0.35277777,0,0,-0.35277777,-70.555569,324.55563)"
       clip-path="url(#clipPath46)"
       id="g42">
      <g
         transform="translate(358.0034,571.4365)"
         id="g48">
        <path
           inkscape:connector-curvature="0"
           id="path50"
           style="fill:#ffffff;fill-opacity:1;fill-rule:nonzero;stroke:none"
           d="M 0,0 C 7.5,-0.956 18.239,-3.344 16.705,-7.803 15.852,-10.192 6.988,-30.256 -0.853,-53.028 L -7.33,-71.341 c 18.58,2.707 34.773,21.179 41.592,41.722 C 42.102,-5.096 34.603,3.663 17.897,3.663 12.954,3.663 6.647,2.547 0,0 m -9.546,-77.869 c -2.558,-7.645 -4.091,-13.377 -5.284,-19.11 -2.216,-10.829 -5.455,-20.702 0.341,-21.02 9.375,-0.796 21.306,5.096 26.591,21.498 6.307,19.428 -7.16,20.064 -21.648,18.632 m -12.614,-43.474 c -7.159,2.389 -17.046,12.58 -12.273,30.574 4.603,17.358 20.967,67.041 26.591,87.106 -6.647,-3.503 -13.295,-8.44 -19.09,-14.969 -1.364,-1.751 -3.751,12.58 -2.557,13.695 5.796,5.414 28.466,14.81 50.796,14.81 23.523,0 43.296,-12.422 33.921,-39.492 -6.648,-19.269 -26.251,-34.875 -47.217,-41.722 16.364,-1.274 31.023,-7.484 25.058,-25.16 -7.16,-20.701 -37.841,-30.734 -55.229,-24.842" />
      </g>
      <g
         transform="translate(516.1982,479.2754)"
         id="g52">
        <path
           inkscape:connector-curvature="0"
           id="path54"
           style="fill:#ffffff;fill-opacity:1;fill-rule:nonzero;stroke:none"
           d="m 0,0 c -7.877,-20.59 -10.72,-28.238 -16.675,-27.886 -5.955,0.352 -4.477,13.823 2.408,32.079 6.886,18.258 19.813,34.722 26.582,30.811 0.331,-0.178 0.653,-0.516 0.974,-0.855 C 7.71,19.707 1.127,3.19 0,0 m 48.021,62.11 c -0.042,-0.005 -0.082,-0.012 -0.123,-0.017 0.173,0.416 0.345,0.828 0.518,1.243 0.976,2.951 2.11,5.838 3.269,8.619 1.572,3.776 3.265,7.713 5.367,11.363 9.611,21.011 15.233,28.854 24.822,37.296 3,2.264 7.292,3.851 7.865,5.198 C 59.069,122.122 36.909,89.75 24.312,61.733 L 19.515,49.893 15.48,39.444 14.205,40.955 C 7.49,48.69 -22.936,36.611 -35.366,5.441 c -8.227,-20.729 -1.111,-41.887 12.842,-42.712 12.422,-0.735 19.24,19.281 23.803,30.017 0.207,0.626 0.387,0.775 0.169,-0.01 -4.72,-13.439 -3.856,-27.688 1.788,-30.415 3.99,-1.83 9.415,0.401 16.258,6.377 5.774,5.241 11.717,13.345 17.32,21.469 C 39.053,-6.615 51.06,8.039 51.116,8.993 51.285,11.854 39.043,-1.032 35.48,-6.404 29.263,-16.246 22.951,-24.806 19.577,-26.999 c -5.51,-3.662 -6.389,-4.09 -3.651,7.554 1.136,4.73 18.688,49.291 27.788,71.417 l 0.595,1.4" />
      </g>
      <g
         transform="translate(586.333,546.9902)"
         id="g56">
        <path
           inkscape:connector-curvature="0"
           id="path58"
           style="fill:#ffffff;fill-opacity:1;fill-rule:nonzero;stroke:none"
           d="m 0,0 -4.532,-11.408 c -10.186,-26.747 -13.789,-34.534 -21.439,-56.628 -9.078,-25.53 -0.518,-39.69 11.529,-38.256 0.17,-0.009 0.405,7.936 3.66,18.136 15.996,39.364 30.383,60.141 38.718,59.698 5.953,-0.318 -3.02,-9.255 -12.212,-31.427 -9.629,-23.586 -3.383,-37.164 1.749,-39.512 3.973,-1.807 9.419,0.456 16.146,6.481 5.991,5.267 12.008,13.404 17.684,21.561 2.268,3.23 10.216,21.764 10.281,22.718 0.194,2.864 -7.974,-13.905 -11.584,-19.298 -6.306,-9.878 -13.014,-18.139 -17.131,-20.951 -5.544,-3.694 -6.225,3.843 3.946,27.877 10.385,24.662 10.831,41.236 -2.946,41.969 -10.716,0.571 -22.492,-14.441 -33.063,-34.305 3.722,9.537 8.402,20.618 13.445,31.999 2.026,4.68 0.427,1.254 5.886,13.73 0.01,0.16 0.191,0.309 0.213,0.627" />
      </g>
      <g
         transform="translate(332.8437,362.3857)"
         id="g60">
        <path
           inkscape:connector-curvature="0"
           id="path62"
           style="fill:#8cc63f;fill-opacity:1;fill-rule:nonzero;stroke:none"
           d="m 0,0 c -3.409,0 -6.988,0.16 -10.909,0.319 h -0.17 c -2.216,3.982 1.023,12.421 6.307,12.74 0.34,0 3.92,-0.16 8.864,-0.319 11.591,32.645 30,50.321 48.069,59.398 -6.819,2.388 -15.682,4.299 -28.467,4.299 -18.92,0 -35.796,-11.624 -45.172,-28.186 -7.67,-13.376 -8.693,-24.842 1.536,-27.389 2.659,-0.882 2.449,-0.773 4.671,-0.727 0.06,10e-4 1.761,0.332 1.821,0.341 6.98,1.084 10.355,5.606 6.773,2.016 -3.591,-3.403 -5.936,-6.567 -16.504,-7.045 -13.637,-0.478 -30.683,13.695 -16.023,38.378 12.443,20.701 44.659,27.867 67.159,27.867 17.387,0 27.955,-2.707 33.581,-5.574 13.636,4.778 26.079,4.938 34.261,3.504 11.421,-2.229 11.421,-12.421 3.409,-20.543 -1.874,-1.91 -17.727,-0.476 -36.477,8.599 -0.171,0 -0.511,0.16 -0.682,0.319 -2.046,0.637 -16.705,2.389 -36.99,-55.893 9.206,-0.319 17.387,-0.478 18.921,-0.478 0.171,0 0.341,-0.318 -0.17,-1.115 C 39.717,6.052 32.387,3.026 21.478,1.435" />
      </g>
      <g
         transform="translate(459.8306,408.1055)"
         id="g64">
        <path
           inkscape:connector-curvature="0"
           id="path66"
           style="fill:#8cc63f;fill-opacity:1;fill-rule:nonzero;stroke:none"
           d="m 0,0 c -2.386,-5.573 -4.943,-12.102 -7.5,-19.268 -8.011,-22.772 -13.637,-43.314 -15.512,-53.824 -2.046,-11.785 -1.193,-11.466 4.091,-7.484 3.239,2.388 9.035,9.254 14.66,19.445 3.239,5.573 16.323,24.025 16.323,21.158 0,-0.956 -12.743,-21.158 -14.789,-24.503 -5.113,-8.439 -10.568,-14.668 -16.194,-20.241 -6.307,-6.37 -11.591,-8.917 -15.682,-7.325 -6.306,2.389 -10.056,14.81 -5.965,30.097 2.215,8.918 10.397,32.486 18.749,61.307 -2.897,0 -5.795,0 -9.204,0.16 -2.216,3.982 0.511,9.395 5.795,9.713 h 6.137 c 1.705,5.893 3.239,12.104 4.943,18.314 0.171,0.637 26.933,0.159 23.694,-7.485 C 9.375,19.746 7.159,15.766 4.092,9.235 h 17.046 c 0.34,0 0.34,-0.318 -0.172,-1.114 C 16.535,3.344 11.25,1.115 0,0" />
      </g>
      <g
         transform="translate(472.8726,375.2187)"
         id="g68">
        <path
           inkscape:connector-curvature="0"
           id="path70"
           style="fill:#8cc63f;fill-opacity:1;fill-rule:nonzero;stroke:none"
           d="m 0,0 c 4.943,18.63 13.466,42.518 17.557,59.237 0.171,0.638 25.228,-0.955 23.012,-7.484 -0.682,-1.911 -5.967,-10.51 -13.296,-32.804 8.863,18.949 19.092,33.123 29.489,33.123 11.572,0 16.553,-10.665 5.625,-41.881 -8.523,-24.364 -11.421,-39.174 -6.648,-34.555 3.921,3.821 15.511,18.312 21.137,28.504 3.239,5.573 4.091,6.051 4.091,3.184 0,-0.955 -0.511,-3.184 -2.556,-6.528 -5.115,-8.599 -14.83,-23.25 -21.99,-30.734 -6.478,-6.848 -13.636,-9.395 -17.728,-7.325 -7.499,3.662 -6.135,22.294 2.558,47.454 7.67,22.772 14.488,30.575 8.522,30.575 -8.522,0 -20.454,-21.02 -34.261,-62.902 -1.875,-7.643 -1.705,-8.438 -1.705,-8.438 C 1.875,-32.646 -6.989,-26.116 0,0" />
      </g>
      <g
         transform="translate(566.2061,382.2168)"
         id="g72">
        <path
           inkscape:connector-curvature="0"
           id="path74"
           style="fill:#8cc63f;fill-opacity:1;fill-rule:nonzero;stroke:none"
           d="M 0,0 C 18.58,17.039 31.534,47.773 26.42,50.321 19.432,53.665 7.33,24.205 1.704,5.573 1.022,3.663 0.511,1.752 0,0 m -1.363,-5.573 c -2.729,-12.739 -2.046,-21.656 3.749,-22.453 7.16,-1.274 25.739,8.599 35.456,25.957 3.067,5.573 4.091,6.05 4.091,3.184 0,-0.956 -0.513,-3.184 -2.557,-6.529 -9.887,-16.243 -29.83,-30.893 -43.979,-30.893 -15.17,0 -21.818,20.702 -14.83,41.88 C -9.034,37.422 20.284,62.901 27.784,55.894 30.171,53.665 42.103,47.933 40.739,40.925 38.863,31.212 18.58,8.44 -1.363,-5.573" />
      </g>
      <g
         transform="translate(676.7324,374.3428)"
         id="g76">
        <path
           inkscape:connector-curvature="0"
           id="path78"
           style="fill:#8cc63f;fill-opacity:1;fill-rule:nonzero;stroke:none"
           d="M 0,0 0.341,1.592 C -12.614,0.159 -17.729,-9.396 -14.318,-12.739 -10.568,-16.402 -4.604,-16.084 0,0 m -47.728,0 0.341,1.273 c -11.422,-2.07 -14.489,-10.827 -11.251,-14.012 3.75,-3.663 6.307,-3.345 10.91,12.739 m 71.421,7.644 c 4.773,1.751 8.524,4.139 10.399,7.006 3.579,5.414 4.09,6.052 4.09,3.185 0,-0.956 -0.341,-3.185 -2.557,-6.37 -2.387,-3.662 -7.5,-6.21 -13.296,-7.803 -8.352,-20.86 -39.375,-29.459 -46.022,-23.249 -7.33,6.689 6.647,21.976 24.715,24.046 2.045,11.306 -0.34,22.453 -4.09,32.008 -5.967,-9.873 -13.466,-19.11 -20.285,-25.16 -2.727,-26.276 -37.159,-37.901 -44.66,-30.894 -6.988,6.528 4.432,21.021 21.308,23.886 2.045,11.307 -0.341,22.295 -3.921,31.848 -5.113,-8.28 -10.568,-16.083 -14.319,-22.771 -1.874,-3.503 -5.214,-9.14 -5.896,-9.617 -2.728,-1.593 -1.093,3.407 2.147,8.98 6.818,11.466 11.42,22.772 13.976,32.645 -4.091,8.439 -8.181,14.809 -8.692,17.676 -1.876,8.121 24.376,9.395 24.546,8.918 0.681,-7.166 -1.365,-14.651 -4.604,-21.976 8.865,-10.032 19.434,-23.727 20.115,-34.237 8.012,8.598 13.295,19.906 16.023,30.256 -3.921,8.122 -7.841,14.172 -8.353,17.039 -1.874,8.121 24.376,9.395 24.546,8.918 C 9.375,65.767 7.5,58.124 4.091,50.161 13.296,39.65 24.545,25.479 24.545,14.81 c 0,-2.548 -0.34,-4.937 -0.852,-7.166" />
      </g>
      <g
         transform="translate(466.7998,507.4941)"
         id="g80" />
      <g
         transform="translate(399.7368,388.0371)"
         id="g84">
        <path
           inkscape:connector-curvature="0"
           id="path86"
           style="fill:#8cc63f;fill-opacity:1;fill-rule:nonzero;stroke:none"
           d="M 0,0 C -5.531,2.055 -11.061,7.427 -8.691,13.272 -6.479,18.646 1.738,21.174 9.48,18.961 15.327,17.381 20.383,12.01 18.17,5.688 16.116,0 7.11,-2.528 0,0 m -13.747,-10.744 c 0.632,2.054 0.789,2.844 0.789,2.844 4.425,0.474 20.858,-2.687 19.436,-7.427 -0.475,-1.264 -13.115,-30.496 -16.591,-51.511 -1.896,-11.535 -1.58,-14.063 2.37,-9.007 4.425,5.689 12.957,21.015 18.329,31.128 2.844,5.53 16.252,25.535 16.252,22.533 0,-0.79 -13.092,-22.533 -14.987,-25.851 -4.741,-8.532 -12.642,-22.753 -18.014,-30.18 -5.057,-7.11 -10.902,-9.639 -14.694,-8.058 -5.689,2.37 -11.852,15.169 -5.057,37.921 3.792,12.799 10.27,31.446 12.167,37.608" />
      </g>
      <g
         transform="translate(668.7646,535.875)"
         id="g88">
        <path
           inkscape:connector-curvature="0"
           id="path90"
           style="fill:#ffffff;fill-opacity:1;fill-rule:nonzero;stroke:none"
           d="M 0,0 C -5.333,1.981 -10.665,7.161 -8.38,12.798 -6.247,17.979 1.676,20.417 9.142,18.283 14.779,16.759 19.654,11.58 17.521,5.485 15.541,0 6.856,-2.438 0,0 m -13.256,-10.361 c 0.61,1.981 0.762,2.742 0.762,2.742 4.266,0.458 20.112,-2.59 18.741,-7.161 -0.458,-1.218 -12.646,-29.406 -15.998,-49.669 -1.829,-11.123 -1.523,-13.561 2.285,-8.685 4.267,5.485 12.494,20.264 17.674,30.015 2.742,5.333 13.41,22.361 13.41,19.466 0,-0.762 -10.363,-19.466 -12.19,-22.665 -4.572,-8.228 -12.19,-21.941 -17.37,-29.102 -4.876,-6.855 -10.513,-9.294 -14.169,-7.77 -5.486,2.286 -11.429,14.627 -4.876,36.566 3.656,12.342 9.903,30.321 11.731,36.263" />
      </g>
      <g
         transform="translate(340.644,479.0068)"
         id="g92">
        <path
           inkscape:connector-curvature="0"
           id="path94"
           style="fill:#ffffff;fill-opacity:1;fill-rule:nonzero;stroke:none"
           d="M 0,0 C -0.219,-4.072 7.664,-2.133 0,0" />
      </g>
      <g
         transform="translate(385.041,652.8857)"
         id="g96">
        <path
           inkscape:connector-curvature="0"
           id="path98"
           style="fill:#ffffff;fill-opacity:1;fill-rule:nonzero;stroke:none"
           d="m 0,0 c -4.595,-1.249 -9.135,-2.68 -13.662,-4.165 -0.456,-0.835 -0.924,-1.664 -1.39,-2.494 0.55,-1.197 0.637,-2.62 0.27,-3.894 -3.184,-21.275 -9.38,-62.676 -14.54,-75.918 -5.376,-14.545 -18.815,-59.941 -21.645,-77.739 -0.377,-3.978 2.074,-8.227 6.507,-9.65 0.022,-0.006 0.041,-0.012 0.063,-0.019 0.016,0.299 0.072,0.626 0.184,0.99 3.079,8.646 13.898,51.569 23.393,66.811 0.202,0.326 5.828,10.819 6.182,11.018 9.635,5.412 11.021,49.399 10.569,78.781 -0.006,0.373 0.096,0.698 0.267,0.974 -0.518,2.179 0.272,4.716 2.363,5.796 0.488,0.408 1.08,0.721 1.776,0.896 C 0.153,-5.724 0.044,-2.84 0,0" />
      </g>
      <g
         transform="translate(461.7324,632.0767)"
         id="g100">
        <path
           inkscape:connector-curvature="0"
           id="path102"
           style="fill:#8cc63f;fill-opacity:1;fill-rule:nonzero;stroke:none"
           d="m 0,0 c -8.732,34.381 -44.69,33.704 -69.089,29.647 5.978,2.061 10.864,3.701 10.864,3.701 l -0.934,0.089 c -2.015,0.19 -2.615,2.844 -0.879,3.884 l 13.469,8.064 -0.139,-0.036 c -2.326,-0.597 -3.665,2.551 -1.622,3.813 l 3.64,2.249 c 1.71,1.055 1.097,3.679 -0.903,3.869 l -0.558,0.053 12.416,4.803 c 1.016,0.393 1.018,1.829 0.004,2.226 l -0.632,0.247 c -1.551,0.606 -1.809,2.692 -0.453,3.658 1.704,1.215 0.759,3.904 -1.331,3.812 -25.239,-1.107 -38.013,-16.263 -44.378,-30.116 -0.865,-1.883 -3.62,-1.53 -3.956,0.515 -2.95,17.946 -13.919,43.473 -51.483,52.601 -2.013,0.489 -3.468,-1.89 -2.085,-3.432 1.749,-1.951 3.723,-4.154 5.283,-5.894 1.155,-1.288 0.336,-3.335 -1.386,-3.482 l -1.643,-0.141 18.536,-9.643 -0.683,-0.04 c -2.002,-0.116 -2.713,-2.707 -1.051,-3.829 l 11.166,-7.539 -0.674,0.064 c -2.085,0.198 -3.139,-2.449 -1.488,-3.738 l 7.98,-6.233 c 0.993,-0.776 0.263,-2.361 -0.972,-2.111 l -0.747,0.151 c -1.175,0.237 -1.933,-1.205 -1.065,-2.031 4.611,-4.392 13.351,-12.889 18.066,-18.593 l -0.521,0.05 c -10.377,13.11 -43.222,45.347 -81.11,-9.956 -1.252,-1.827 0.815,-4.112 2.749,-3.032 l 5.819,3.249 c 0.979,0.546 2.103,-0.434 1.695,-1.478 l -0.115,-0.295 c -0.432,-1.103 0.832,-2.093 1.799,-1.411 l 8.731,6.156 c 1.009,0.711 2.303,-0.39 1.762,-1.499 l -0.04,-0.084 c -0.528,-1.081 0.695,-2.175 1.711,-1.532 l 11.022,6.976 c 0.941,0.595 2.113,-0.307 1.778,-1.368 l -0.534,-1.694 c -0.3,-0.949 0.625,-1.826 1.557,-1.478 l 14.766,5.529 c 1.048,0.392 2.012,-0.743 1.455,-1.713 l -0.151,-0.262 c -0.517,-0.9 0.282,-1.985 1.294,-1.761 l 12.355,2.742 c 1.095,0.243 1.891,-1.022 1.198,-1.904 l -0.811,-1.032 c -0.729,-0.927 0.179,-2.231 1.303,-1.874 1.547,0.49 3.432,1.038 5.394,1.491 -15.589,-7.451 -42.528,-25.996 -34.264,-63.144 0.462,-2.074 3.386,-2.206 4.046,-0.187 l 4.486,13.728 1.541,-5.928 3.341,18.607 2.161,-4.936 4.384,18.51 0.92,-6.922 5.277,16.847 1.119,-4.837 2.183,7.265 c 0.314,1.045 1.751,1.155 2.221,0.171 l 0.211,-0.442 c 0.432,-0.903 1.71,-0.919 2.146,-0.018 0.561,1.159 1.316,2.663 2.19,4.266 -0.207,-1.45 -0.437,-3.054 -0.674,-4.709 1.269,0.601 2.755,0.953 4.469,0.953 2.68,0 4.806,-0.852 6.399,-2.196 0.861,0.877 2.444,0.939 3.254,-0.305 0.302,-0.463 0.576,-0.889 0.817,-1.266 0.505,-0.791 1.675,-0.707 2.078,0.14 l 0.713,1.503 c 0.414,0.871 1.638,0.918 2.116,0.079 l 7.431,-13.018 -0.252,8.435 9.634,-20.364 -0.35,7.393 4.753,-12.748 c 0.677,-1.815 3.242,-1.82 3.925,-0.008 l 0.134,0.355 -0.335,-17.04 c -0.024,-1.181 1.5,-1.675 2.174,-0.704 l 0.627,0.903 c 0.701,1.009 2.286,0.429 2.17,-0.794 l -0.776,-8.178 c -0.115,-1.219 1.46,-1.802 2.165,-0.801 l 0.063,0.089 c 0.675,0.958 2.182,0.473 2.17,-0.699 l -0.102,-10.65 c -0.023,-2.34 3.214,-2.939 4.064,-0.758 16.737,42.954 -5.862,64.904 -24.54,75.021 l -0.893,1.662 18.014,-9.594 -1.147,1.507 c -1.278,1.678 0.446,3.981 2.417,3.227 l 8.107,-3.103 c 1.065,-0.408 2.04,0.766 1.446,1.738 -0.634,1.036 0.502,2.246 1.575,1.68 l 7.947,-4.189 c 1.747,-0.921 3.681,0.864 2.904,2.679 l -0.253,0.589 13.084,-8.983 c 0.161,-0.11 0.305,-0.242 0.429,-0.392 l 2.254,-2.725 C -2.216,-3.617 0.553,-2.18 0,0" />
      </g>
      <g
         transform="translate(566.3223,481.8584)"
         id="g104">
        <path
           inkscape:connector-curvature="0"
           id="path106"
           style="fill:#ffffff;fill-opacity:1;fill-rule:nonzero;stroke:none"
           d="M 0,0 C 0.207,0.626 0.387,0.775 0.169,-0.01" />
      </g>
      <g
         transform="translate(606.6094,539.6284)"
         id="g108">
        <path
           inkscape:connector-curvature="0"
           id="path110"
           style="fill:#ffffff;fill-opacity:1;fill-rule:nonzero;stroke:none"
           d="m 0,0 c 0.975,2.951 5.908,15.291 7.066,18.071 1.573,3.776 3.266,7.713 5.369,11.363 9.61,21.011 15.232,28.854 24.821,37.296 3,2.265 7.292,3.852 7.865,5.198 -30.67,-3.69 -52.83,-36.062 -65.427,-64.079 l -4.798,-11.84 -4.021,-11.509" />
      </g>
      <g
         transform="translate(335.2617,365.8467)"
         id="g112">
        <path
           inkscape:connector-curvature="0"
           id="path114"
           style="fill:#8cc63f;fill-opacity:1;fill-rule:nonzero;stroke:none"
           d="m 0,0 c -0.824,-2.997 -13.893,-32.509 -14.908,-35.346 -1.379,-3.85 -2.869,-7.869 -4.783,-11.62 -8.531,-21.472 -13.747,-29.592 -22.894,-38.511 -2.881,-2.413 -7.087,-4.216 -7.591,-5.59 30.443,5.245 50.928,38.701 62.085,67.322 l 4.19,12.069 3.577,11.714" />
      </g>
      <g
         transform="translate(442.8081,480.3506)"
         id="g116">
        <path
           inkscape:connector-curvature="0"
           id="path118"
           style="fill:#ffffff;fill-opacity:1;fill-rule:nonzero;stroke:none"
           d="m 0,0 c -3.383,-12.298 -10.743,-22.096 -13.934,-21.392 -3.191,0.705 -2.793,12.512 0.362,25.084 C -10.418,16.265 -3.72,26.676 -0.5,26.083 1.404,25.732 4.455,16.199 0,0 m 23.9917,27.1435 -0.874,-3.139 c -4.804,6.057 -12.047,9.019 -19.851,11.157 -7.804,2.137 -15.624,3.299 -23.167,0.625 l 0.488,2.379 c 1.739,5.54 9.208,12.042 15.137,10.418 l 21.544,-5.9 c 5.931,-1.624 8.461,-10 6.723,-15.54 m 4.298,-12.209 c 3.653,2.327 6.315,5.732 7.563,9.711 l 1.692,5.391 c 2.972,9.474 -3.102,15.8 -12.831,20.587 l -29.379,8.046 c -10.141,2.777 -20.919,-1.056 -23.892,-10.53 l -1.692,-5.391 c -1.248,-3.979 -0.976,-8.187 0.753,-11.989 -6.099,-4.397 -10.493,-10.323 -12.765,-17.227 -5.669,-17.222 3.931,-35.965 21.891,-42.534 20.569,-7.522 43.233,3.171 49.311,22.542 2.227,7.098 1.999,14.466 -0.651,21.394" />
      </g>
      <g
         transform="translate(442.8081,480.3506)"
         id="g120" />
    </g>
  </g>
</svg>
